<svg xmlns="http://www.w3.org/2000/svg" viewBox="0 0 56.34 28.27"><defs><style>.cls-1{fill:#fff;}</style></defs><g id="Laag_2" data-name="Laag 2"><g id="Laag_1-2" data-name="Laag 1"><path class="cls-1" d="M2.16,10.57l-.05.06L2,10.69H2a1.09,1.09,0,0,1,0-.13.49.49,0,0,0,0-.13l-.06,0-.06,0a.2.2,0,0,1,0-.07s0,0,0-.05,0,0-.05,0-.05,0-.05,0,0,0,0-.11a.68.68,0,0,0,0-.12l0-.05a.17.17,0,0,1,0-.05l-.06-.06,0-.05V9.63s0,0,0,0v0l.08.07.08,0,0,0h0l0,0h0l0,0H2l.06,0,.06,0a.14.14,0,0,1,0,.07l0,.05h.11s.06,0,.06,0a.14.14,0,0,0,0,.06l0,.06a.72.72,0,0,1,0,.19.67.67,0,0,0,0,.19l0,.06,0,.08.06,0s0-.07,0-.16,0-.14,0-.18a.1.1,0,0,1,0,0,.11.11,0,0,1,0-.05l0-.09,0-.08h.05l.14,0L3,9.84h.06l0,0,0,0h0l0,0s0,0,.07.06a.1.1,0,0,0,0,.06.17.17,0,0,1,0,.05l.05-.06.06-.05h0l0,0h0l.07,0h0l.13-.22s0,0,0,0l0,0h.07l.23-.09.23-.1.09,0,.09,0,0,0,0,0h0l0,0,0-.05a.08.08,0,0,0,0,0s0,0,0,0l0,0,0,0,.11,0a.28.28,0,0,1,.11,0L5,9.4l.06,0,.08,0,.09,0H5.3l0,0a.24.24,0,0,0,.08-.09l.06-.08L5.66,9l.19-.17.09,0,0,0,0,0a.44.44,0,0,1,.1-.12l.1-.12a.06.06,0,0,1,0,0,.05.05,0,0,0,0,0,.19.19,0,0,0,0-.08.21.21,0,0,1,0-.1.54.54,0,0,1,0-.11.11.11,0,0,0,0-.08.34.34,0,0,1,0-.09s0,0,0,0h0s0,0-.07,0l0,0-.09-.09s-.06-.08-.08-.09L6,7.89s0,0-.08-.07l-.09-.08a.24.24,0,0,1,0-.07.35.35,0,0,0,0-.06h0a.09.09,0,0,0,.06,0v0s0,0,0,0v0a.66.66,0,0,0,0-.13.34.34,0,0,1,0-.09l-.11,0a.25.25,0,0,0,0-.11A.59.59,0,0,1,5.7,7a.46.46,0,0,0,0-.17.77.77,0,0,1,0-.18H5.62a.09.09,0,0,1-.06,0,.39.39,0,0,0,0,.15.49.49,0,0,1,0,.14s0,.1,0,.2,0,.17,0,.2l0,0s0,0-.07-.11,0-.11,0-.12,0,0,0,0l0,0a.56.56,0,0,1-.07.12s0,0,0,.11a.62.62,0,0,0,0,.11s0,0-.09-.08S5,7.3,5,7.28a.25.25,0,0,1,0-.16A1.17,1.17,0,0,0,5,7H4.92L4.83,7l-.08.07-.06,0h0l0,0h0a.25.25,0,0,0-.07.09l-.07.12v0l0,0a.49.49,0,0,1,0,.12.39.39,0,0,1,0,.12.1.1,0,0,1,0,0,.18.18,0,0,1,0,.06H4.4a.18.18,0,0,0,0-.06s0,0,0,0,0,0,0-.05l0,0,0,.17a.12.12,0,0,1-.07,0l-.07,0,0,0s0,0,0,0a.16.16,0,0,0,0-.1l0-.09L4,7.35a1.32,1.32,0,0,1-.08-.14l-.06,0H3.77l-.09,0-.07,0-.07.06a.13.13,0,0,0,0,.06s0,0,0,.07a.23.23,0,0,0,0,.09l0,0a.25.25,0,0,0,0,.07l0,0,0,0v0s0,0,0,0v-.1a.15.15,0,0,1,0-.06l0-.06a.44.44,0,0,0,0-.09.3.3,0,0,0-.07-.08l-.08.07-.08.09s0,0,0,.06l0,0-.1,0-.09.07h0l0,0-.06,0h0l-.12,0H2.4l-.12-.05-.12-.07-.07,0L2,7.52a.22.22,0,0,1,0-.1.51.51,0,0,1,0-.09l-.07-.11L1.8,7.09l0,0a.14.14,0,0,1,0-.06.75.75,0,0,1,0-.11.29.29,0,0,0,0-.12V6.64s0,0,0,0,0,0,0,0a.4.4,0,0,1,0-.15,1.13,1.13,0,0,1,0-.14V6.07L1.72,6,1.8,6l.08-.06s0,0,0,0L2,5.73c0-.08.06-.13.07-.13a.09.09,0,0,1,0-.08h.08l0,0s0,0,0,0H2.4l.11,0,.12-.05h.1l.09-.06.1,0,.06,0,.06,0h0l0,0a.22.22,0,0,0,0-.08c0-.05,0-.07,0-.07s0,0,.09,0l.12,0v0l0,0,0-.06.12-.12.08,0h.15s0,0,0,0,0,.06,0,.06,0,0,0,0l0,0,0-.17H4a.06.06,0,0,0,.07,0l.07-.06.05-.06h.09l.1,0,.1-.07.12-.09.12-.05.12,0h.09s.07,0,.08,0,0,0,.06-.09a.48.48,0,0,1,.08-.12s0,0,0,0h.08l0,0,0,0,0-.45,0,0,0,0h0s0,0,0,0a.07.07,0,0,1,0,0,.17.17,0,0,1-.06-.06.09.09,0,0,1,0-.06L5,3.69a.24.24,0,0,0-.09.08s0,0-.06.07,0,.08-.06.08a.1.1,0,0,1-.07,0L4.64,4l0-.06,0,0h0l0,0s0,0,0,0l0,0H4.3a.15.15,0,0,1-.08,0l-.08-.07s0,0,0,0l0-.06H4a0,0,0,0,1,0,0L4,3.75l-.06,0H3.69l-.08,0-.1,0H3.29l-.23,0a.11.11,0,0,0,0-.05.16.16,0,0,0,0-.06H3s0,0,0,0v0l0,0H2.88l0,0-.09.09a.28.28,0,0,0-.08.09s0,0,0-.08-.06,0-.08,0v0l0,0-.07,0-.05.06H2s0,0,0,0,0,0,0,0H1.67s0,0,0,0l0,0,0,0-.06,0-.05,0,0,0a.14.14,0,0,0,0,.07s0,.07,0,.09,0,0-.07.05l-.09,0-.07.09s-.05.06-.05.07,0,0,0,0v.29a.24.24,0,0,0,0,.12.24.24,0,0,0,0,.1.51.51,0,0,1,0,.09v0h0v0l-.06.09a.37.37,0,0,1-.06.08l.12.92a.07.07,0,0,0,0,.06l0,.06v.62a.59.59,0,0,1,0,.11.88.88,0,0,0,0,.17c0,.06,0,.12,0,.18s0,.09,0,.1h0v0a.19.19,0,0,0,0,.08l0,.08a.68.68,0,0,1,0,.12v.76a1.13,1.13,0,0,1,0,.14.32.32,0,0,1,0,.08v.12a.53.53,0,0,1,0,.13.35.35,0,0,1,0,.07l0,.07,0,.1s0,0,0,.06l0,.05a.68.68,0,0,1,0,.13.34.34,0,0,1,0,.11l0,0s0,0-.05,0a.54.54,0,0,1,0,.15.31.31,0,0,1-.08.14A.44.44,0,0,1,1,9.72a.53.53,0,0,0-.11.11s0,.05-.05.11,0,.09,0,.11H.73s0-.11,0-.23,0-.19,0-.22,0,0-.07-.08L.46,9.37.3,9.24S.23,9.17.23,9.16a.39.39,0,0,1,0-.11.59.59,0,0,1,0-.11V8.82a.66.66,0,0,0,0-.11s0-.06,0-.14a.43.43,0,0,1,0-.15V8.33a1,1,0,0,1,0-.17c0-.06,0-.11,0-.16a.45.45,0,0,0,0-.08.32.32,0,0,0,0-.08s0-.08,0-.12,0-.09,0-.13a.34.34,0,0,1,0-.09V7.41a.14.14,0,0,1,.07-.06l.05,0V7.24H.19V7.06a.87.87,0,0,0,0-.17l0,0,0,0,0,0,0,0V6.72l0-.06a.3.3,0,0,1,.06-.11l.06-.11,0-.06,0,0h0s0,0,0,0V6.27l-.06,0-.05,0,0,0h0l0,0a.52.52,0,0,0,.07-.15L.13,6V5.93s0,0,0-.06H0v0l0,0,.08-.16a.93.93,0,0,1,.1-.16,0,0,0,0,0,0,0,0,0,0,0,1,0,0H.08a.54.54,0,0,1,0-.11,1.37,1.37,0,0,1,0-.19c0-.07,0-.13,0-.18V4.8l0-.08a.16.16,0,0,0,0-.09V4.52a.14.14,0,0,0,0-.06V4.4a.53.53,0,0,1-.06-.13.4.4,0,0,1-.05-.15s0,0,0,0a.07.07,0,0,1,0,0H.25l0,0,0,0v0h0s0,0,0,0V3.84l0-.06,0-.11a.61.61,0,0,1,0-.11l0-.06s0,0,0-.11a.34.34,0,0,0,0-.11H.13a.71.71,0,0,1,0-.12A.25.25,0,0,0,.07,3L0,3a.25.25,0,0,1,0-.08v-.2s0,0,0,0a.35.35,0,0,1,.16,0H.7l.07-.13c0-.06.06-.1.07-.1s0,0,0,0l.06,0H1l.07.09.08.1.43-.38.06,0s0,0,0,0h.19a0,0,0,0,0,0,0l0,0,0,.07a.11.11,0,0,0,0,.05l0,0h.13l0,0,0,0V2.29a.22.22,0,0,1,0-.09.41.41,0,0,1,0-.09A.14.14,0,0,1,2.31,2s.06,0,.12,0h.12l0,.26.12-.08.13-.07.13,0L3.06,2h0s0,0,0,.08v.09a.14.14,0,0,0,0,.06.08.08,0,0,0,0,.06h.07l.09,0,.09-.06,0,0a.14.14,0,0,0,0-.09.14.14,0,0,0,0-.09l0,0,0,0a0,0,0,0,0,0,0h0l0,0s0,0,.05,0a.09.09,0,0,0,0-.05L3.74,2a.16.16,0,0,1,0,.09s0,0,0,.11a.43.43,0,0,0,0,.1s0,0,0,0h.07l0,0,0,0L4,2.19A.72.72,0,0,1,4,2.08h0v.11a.29.29,0,0,1,0,.12.63.63,0,0,0,0,.12.49.49,0,0,1,0,.12l.09-.06.09-.06h.11l0,0,0,0,0-.06,0-.06.07,0,.09-.05h.07l0,.07s0,0,.06,0H5s0,0,0,.06l.05.08.11,0,.11,0v.12l.09,0s.07,0,.08,0l0,.06s0,.06.07.06,0,0,0,0a.08.08,0,0,1,.06,0s0,0,0,0h0v0a0,0,0,0,0,0,0,.12.12,0,0,0,0,0l.06.07L5.89,3l0,.06v.06a.33.33,0,0,1,0,.1l0,.07v.12l0,0h0l0,0L6,3.61l.11.13.07,0,.09,0h0a.18.18,0,0,0,.07.05s0,0,0,0l0,.08.06.09L6.6,4a.31.31,0,0,1,0,.11c0,.06,0,.1,0,.12s0,0,0,.08a.19.19,0,0,0,0,.09h0v0s0,0,0,0a0,0,0,0,0,0,0s0,0,0,0l0,0,0,.06,0,0,0,.07a.09.09,0,0,0,0,0,.49.49,0,0,1,0,.12.34.34,0,0,0,0,.11l-.14.13a1,1,0,0,0-.14.13V5.07l0,0h0s0,0,0,0,0,0,0,.07,0,0,0,0l-.09,0-.08,0,0,0h0l.11.19H5.69l-.09,0a.14.14,0,0,0-.08,0s0,0-.07,0a.07.07,0,0,0,0,.06s0,0,0,0l0,0h0l0,0v0h0v0h0a.08.08,0,0,1,0,0l0,0,0,.06a.07.07,0,0,0,0,.05V6h.11L5.64,6a.49.49,0,0,1,.18.09h0a.09.09,0,0,1,.06,0s.05,0,.09.06l.07.06.12.07a.62.62,0,0,0,.12.06.34.34,0,0,0,0,.12l.08.11.13.15a1,1,0,0,0,.15.15H6.8s0,0,0,.06a.17.17,0,0,0,.07.06l.06,0,.08,0,0,0,0,.07a.93.93,0,0,1,.06.18.9.9,0,0,1,0,.12v.14s0,0,0,0v0l-.06.07s0,0-.06,0l0,0,0,0L7,8V8a.2.2,0,0,0,0,.07v.1l0,0,0,0,.06,0a.08.08,0,0,1,.06,0h.15a1.37,1.37,0,0,1-.05.18l-.06.22a.11.11,0,0,1,0,0L7,8.72l-.12.08-.06,0,0,0,0,0a.61.61,0,0,0,0,.15c0,.08,0,.13,0,.15h0s0,0,0,0l0,0-.06,0H6.54l0,0a.19.19,0,0,0,0,.08l0,.12c0,.06,0,.09,0,.08a.3.3,0,0,1-.08.07l-.09.05H6.18l0,0a.53.53,0,0,0,0,.11.61.61,0,0,1,0,.11A.05.05,0,0,1,6,9.83l0,0,0,0s0,0,0,0,0,0,0,0a.15.15,0,0,0,0-.08l0-.06,0,0,0,0,0,.05,0,0a.44.44,0,0,0,0,.09.84.84,0,0,1,0,.1s0,0,.07,0h0V10H5.65l-.06,0-.06,0a.1.1,0,0,1,0,0,.05.05,0,0,1,0,0h0a.05.05,0,0,0,0,0s0,0,0,0l0,.39s0,0,0,0,0,0,0,0h0l0,0H5.18a0,0,0,0,0,0,0s0,0,0,0a.09.09,0,0,0,0,0,.25.25,0,0,1,0,.07v.12H5.11a.1.1,0,0,1-.07,0v0l0,0s0,0,0-.06a.14.14,0,0,1,0-.07H4.83a.09.09,0,0,0,0,.08v0l0,0v0h0a.36.36,0,0,1-.07.09l-.09.08a.21.21,0,0,0-.06-.09.16.16,0,0,1,0-.09l0,0h0a.19.19,0,0,0,0,.1.51.51,0,0,0,0,.09l0,.07,0,0L4.24,11l-.12.11H4l-.09,0H3.66l-.11-.11-.1-.14a.29.29,0,0,1,0-.14.3.3,0,0,1,0-.14l-.07,0a.17.17,0,0,1,0,.12l-.05.11-.08,0H2.89s-.05,0-.05.06,0,0,0,.05l0,.07,0,0,0,0s0,0,0-.06a.15.15,0,0,0,0-.07l0-.05a.05.05,0,0,0,0,0l-.05-.07-.08,0-.08,0-.06,0H2.28l-.06-.07ZM.72,9.37H.78V9.3a.18.18,0,0,1,0-.06L.72,9.19ZM1.1,3.55h.07v-.1H1.1Zm1,2.32s0,0,0,.06,0,.05,0,.05.07,0,.08,0A.07.07,0,0,0,2.1,5.87Zm0,4.13a.05.05,0,0,0-.06.06s0,.06,0,.06,0,0,0-.06S2.17,10,2.15,10Zm.18-3.2-.06,0,0,0A.16.16,0,0,1,2.2,7h.12Zm.46,0a.13.13,0,0,0-.12,0l0,0,0,0V7a0,0,0,0,0,0,0V7h.13Zm-.2.5h.17V7.27l0,0,0,0H2.59Zm0-4.76h.08l-.08-.06Zm.18,3.29a.05.05,0,0,0-.06.06s0,.06,0,.06,0,0,0,0S2.81,5.86,2.79,5.85Zm0-3.09V2.68h0Zm0,7.36,0,0s0,0,0,0a.43.43,0,0,0,0,0,.13.13,0,0,0,0-.06H2.77Zm0-7.83a.22.22,0,0,0,0,.12l0,0,0,0,0,.1a.28.28,0,0,1,0,.11H3l0-.44a.15.15,0,0,1-.08,0l-.06,0Zm.11,8.37s0,0,0,.06,0,.06,0,.06,0,0,0,0S2.92,10.67,2.9,10.66Zm.11,0,.07-.12H3Zm.5-4.89,0,0,0,0a.46.46,0,0,0,0,.09s0,.07,0,.09H3.5Zm0,4.42s0,0,0,.05,0,.05,0,.05,0,0,0-.05S3.52,10.2,3.49,10.2Zm0-4.67.07,0a.11.11,0,0,0,0,0s0,0,0,0l-.1,0Zm.1,5.12h.08v-.07a.19.19,0,0,1,0-.06s0,0,0,0Zm.33.42s0,0,0,.06,0,.06,0,.06,0,0,0-.06S3.92,11.07,3.9,11.07ZM4,6l0,.06a.15.15,0,0,1,0,.06l.07.07V6.05S4.05,6,4,6H4A0,0,0,0,1,4,6ZM4,2.82l.08-.06L4,2.74Zm.06,7.8h.08v0l0,0,0,0Zm.06.41,0-.06h0Zm0-4.36h.13s0-.06,0-.06l-.06-.07-.06,0ZM4.24,5s0,0,0,0,0,0,0,0,0,0,0,0S4.26,5,4.24,5Zm.12-1.18a0,0,0,0,0,0,.05s0,0,0,0,.05,0,.06,0S4.4,3.86,4.36,3.86Zm0-.12s0,0,0,.06,0,.06,0,.06a.06.06,0,0,0,0-.12ZM4.4,7s0,0,0,0l0,0h0V7Zm.16-3.48s-.06,0-.06,0,0,0,.06.06,0,0,0-.05S4.58,3.49,4.56,3.49Zm0,1.92h.11V5.33H4.56Zm0-1.88s0,0,0,.06,0,.06,0,.06.05,0,.05-.06S4.64,3.53,4.6,3.53Zm0,1.35a.08.08,0,0,1,0,0V5h0s0,0,0,0V5a.11.11,0,0,0,0,0V4.83Zm0,5.16h.06l0-.11H4.64Zm0-7.59h.06V2.4H4.67ZM4.83,4.8a.09.09,0,0,0,0,0s0,0,0,0h.06l.07,0,0,0-.16-.14,0,.06A.11.11,0,0,0,4.83,4.8Zm.39-.16s0,0,0,0,0,0,0,0,0,0,0,0A0,0,0,0,0,5.22,4.64Zm.42-.38a0,0,0,0,0,0,.06,0,0,0,0,0,0,0S5.65,4.26,5.64,4.26ZM6,6.93s0,0,0,0,0,0,0,0S6,7,6,6.93Zm.1-.09h.06l0-.12H6.06Zm.08.68,0,0,0,0s0,0,0,0,0,0,0-.06H6.14Z"/><path class="cls-1" d="M11.81,10.55a.39.39,0,0,0,0,.09.17.17,0,0,0,0,.07s0-.05,0-.05h-.27l-.13,0-.19-.07h0l-.05,0h0l0,0h0l0,0v0s0-.05,0-.09a.15.15,0,0,0,0-.1.31.31,0,0,0-.13-.06l-.12,0v-.12l-.21.14s0,0,0,0l-.06-.07a.13.13,0,0,1,0-.11.07.07,0,0,0,0-.09s-.07,0-.07.06v.08a.24.24,0,0,1,0,.08.19.19,0,0,1-.13,0c-.16,0-.27,0-.31-.07A.22.22,0,0,1,9.61,10c0-.06,0-.12,0-.18a.1.1,0,0,0-.09-.11.3.3,0,0,0-.14,0l-.17,0,.06-.12a.39.39,0,0,1-.22-.08.61.61,0,0,1-.16-.16,2.39,2.39,0,0,1-.13-.21l-.11-.21-.07-.09a.48.48,0,0,0-.08-.12,1.17,1.17,0,0,1-.21-.36c0-.1-.06-.22-.11-.36l0,0,0,0a1.69,1.69,0,0,1,0-.21c0-.11,0-.18,0-.2v-.1a.51.51,0,0,1,0-.17.9.9,0,0,0,0-.18V7l0,0a.15.15,0,0,1,0-.06V6.66a1.82,1.82,0,0,1,0-.2c0-.09,0-.19,0-.29a1.34,1.34,0,0,1,.08-.26c0-.08.08-.12.13-.12a.37.37,0,0,1,0,.12.17.17,0,0,0,0,.1h.16a.15.15,0,0,0,.15,0,.51.51,0,0,1,0-.11c0-.05,0-.08,0-.09h0v.12a.13.13,0,0,1,.08,0h.07l0,0,0,0,.11,0,.1,0V5.74a.6.6,0,0,0-.06-.27A.54.54,0,0,1,9,5.18l.15,0a.32.32,0,0,0,.14,0,.09.09,0,0,0,.1-.06.1.1,0,0,0-.09-.06.2.2,0,0,1-.11,0l0,0a.24.24,0,0,1,.06-.14,1.14,1.14,0,0,0,.06-.14h.16l.17,0c.09,0,.14,0,.14.09a.09.09,0,0,1,0,0,.15.15,0,0,0,0,.06V5L10,5a.37.37,0,0,0,.21-.12.48.48,0,0,0,0-.15c0-.09.05-.13.09-.13s.05.13.15.13h.1a.11.11,0,0,0,.08-.05.11.11,0,0,0,0-.08l0,0h-.18s0,0,0,0a.08.08,0,0,0,0,0,.34.34,0,0,0,0-.09s0-.06,0-.06h.05l.08,0,.08.06.13,0a.2.2,0,0,1,.14.07c0,.07,0,.14,0,.21a.3.3,0,0,0,.1.2h.05V4.81l0,0h0s0,0,.06.06l.06,0h0a.42.42,0,0,0,.14,0l.13,0v0s0-.07-.09-.08a.38.38,0,0,1-.11,0h0a0,0,0,0,1,0,0l.05-.07s0-.05,0-.05l.11.05.11.07h0c.1,0,.15,0,.17-.1A.28.28,0,0,1,12,4.42s0,0,.08.1l.08.11s0,0,0,0,0,0,0,0h0l0,0h0V4.26l.09,0a.76.76,0,0,0,0,.3,1.12,1.12,0,0,0,.1.31l.08,0V4.3h.08a0,0,0,0,1,0,0,.48.48,0,0,1,0,.15.71.71,0,0,1,0,.17h.06l0,0a.23.23,0,0,0,.05-.07h.45a.91.91,0,0,0-.06.11.49.49,0,0,0,0,.12s0,0,0,0a.11.11,0,0,0,0,0,.24.24,0,0,0,.13,0h.14s0,0-.07,0h-.09l-.12,0a.16.16,0,0,0-.08.13.7.7,0,0,0,0-.14l0-.12a.25.25,0,0,0,0-.08.34.34,0,0,0,0-.08s0-.06-.06,0,0,0-.08,0A.52.52,0,0,0,13,5a.62.62,0,0,1,.05.27H13l0,0,.16.16h0v0l0-.06a.43.43,0,0,1,0,0v0l0,0h0a.12.12,0,0,1,.12.1.22.22,0,0,1,0,.16c0-.09.06-.14.11-.16l.21,0v.25h.19a.23.23,0,0,1,.17.05h-.05l-.06,0v0c0,.07,0,.11.13.13l.2,0s0,0,0,0l0,.07s0,0,0,0l0,0-.05,0,0,0-.06,0-.05,0,0,0-.06,0a1.69,1.69,0,0,1,.27.32.15.15,0,0,1-.14,0,.34.34,0,0,0-.15,0l0,0v0l0,.08a.25.25,0,0,0,.05.07.28.28,0,0,0,.08.09l.08.07a.41.41,0,0,1,0,.12.25.25,0,0,1-.07.09s0-.06-.11-.06h0a.09.09,0,0,0,0,.06s.05,0,.05.07V7a.17.17,0,0,1,0,.13.15.15,0,0,1-.1,0l-.13,0H13.3a.08.08,0,0,0-.05.11c0,.05,0,.08,0,.1s-.05-.08-.08-.09H13c-.09,0-.15,0-.17.06a.16.16,0,0,1-.12.09l-.1,0a.25.25,0,0,1-.08,0s-.06-.05-.08-.05l0,.05,0,0a.4.4,0,0,0-.07.15l0,.14a.28.28,0,0,1,0,.13.28.28,0,0,1-.13.1.19.19,0,0,0,0-.18.13.13,0,0,0-.14-.09.11.11,0,0,0-.1,0,.39.39,0,0,0-.06.11.08.08,0,0,0,0,0s0,0,0,0v0a.08.08,0,0,0,0,0l0-.07a.26.26,0,0,0,0-.07s0-.06-.05-.06h-.08a.38.38,0,0,0-.18.06c-.08,0-.11.07-.11.12s0,0,0,0a.14.14,0,0,0,.08.06l.08.06s0,.06,0,.15a.39.39,0,0,0,0,.16.08.08,0,0,0,0,0l0,0h0a0,0,0,0,0,0,0l-.17.11-.13.06-.08,0a.21.21,0,0,1,.06-.16.18.18,0,0,0,.07-.16c0-.07,0-.1,0-.1h-.14l0,.07a.2.2,0,0,1,0,.07,1.2,1.2,0,0,1-.07.19.83.83,0,0,0,0,.12h0s0-.07,0-.14,0-.08-.12-.06l-.2,0-.22.06,0,0,0,0h-.08a.34.34,0,0,0-.13-.25H10.3v.26c-.06,0-.1,0-.11-.11s0-.11-.11-.11a1.05,1.05,0,0,1,0,.13c0,.06,0,.1,0,.13a.27.27,0,0,0,0,.1c0,.06.05.09.07.1l.08,0,.12,0,.35.07a1.68,1.68,0,0,1,.32.09,1.55,1.55,0,0,0,.31.07.9.9,0,0,1,.32.09l.12,0c.05,0,.07,0,.07,0a.16.16,0,0,1,0,.08.22.22,0,0,0,0,.08l.09,0,.12,0h.05a.29.29,0,0,0,.14,0l.14,0a.9.9,0,0,1,.25,0,1,1,0,0,0,.27,0c0,.08,0,.12,0,.13l.12,0a.19.19,0,0,0,.13,0,.09.09,0,0,1,.08,0s.06,0,.07,0a.13.13,0,0,1,0,.06.14.14,0,0,0,0,.06s0,0,.06,0,.09,0,.07-.09,0-.09.08-.09h.21l.11,0a.11.11,0,0,1,0,.09.07.07,0,0,0,.08.07h0l.27-.26h.46l0,.06a.19.19,0,0,0,.17.1.22.22,0,0,1,.19.1l-.12.06a1.09,1.09,0,0,1,0,.18A.61.61,0,0,0,15,10a.76.76,0,0,0,0,.14s0,.07,0,.07H14.9v.06h.15v.27h0s0,0,0,0,0,0,0,0l0,0-.11-.06-.1,0h0s0,.07,0,.08h.07s0,0,0,0a.13.13,0,0,1-.05.12.14.14,0,0,1-.11,0h-.06l-.15,0-.16,0h0l0,0a0,0,0,0,0,0,0l-.08,0H14v-.19a1,1,0,0,0-.46.16v-.24h-.06a.24.24,0,0,0,0,.07.51.51,0,0,0,0,.09h-.25l-.07.09,0-.05-.1,0h-.1s0,0,0-.07a.2.2,0,0,0,0-.08H12.8l0,0,0,0h-.21V10.4s0,0,0,0a0,0,0,0,1,0,0h0l0,0,0,0h0a.14.14,0,0,0-.09.11,1.21,1.21,0,0,0-.05.14.33.33,0,0,1,0,.12.07.07,0,0,1-.06.05c-.05,0-.07,0-.08,0a.29.29,0,0,1,0-.09s0-.07,0-.1,0,0-.1,0ZM8.25,6.07s0,0,0,0,0,0,0,0,0,0,0,0S8.27,6.07,8.25,6.07Zm.46.47a0,0,0,0,0,0,0,0,0,0,0,0,0,0s0,0,0,0S8.73,6.54,8.71,6.54Zm0-.27a.17.17,0,0,0-.05.12.13.13,0,0,0,.12-.07Zm0,.89s0,0,0,0,0,0,0,0l0,0S8.75,7.18,8.75,7.16ZM9,5.91c-.05,0-.08,0-.1.1s0,.1,0,.12A.31.31,0,0,0,9,6.07C9,6,9.07,6,9.07,6V6L9,5.93Zm0,.2s0,0,0,.06,0,.07,0,.06a.1.1,0,0,0,0-.12Zm.34,1.57a.06.06,0,0,1,0,.05.11.11,0,0,0,0,0l.05,0,.06.06s.05,0,.05-.1V7.66a.33.33,0,0,0,0-.15.33.33,0,0,1,0-.15.18.18,0,0,1,0-.11.12.12,0,0,1,.1,0h0s0,0,0,.06l.06,0h.06l0,0,.05,0,.11,0c.06,0,.09,0,.1,0a.23.23,0,0,0,0-.1l0-.1.09,0,.11,0h.06l.08,0,.08,0a.37.37,0,0,0,.21-.09l.2-.12A.3.3,0,0,0,11,7s.06,0,.13,0h.12A.17.17,0,0,0,11.35,7l.09-.41.2-.07a.54.54,0,0,1,.19,0h0l.09.05.07.06h.06s0,0,0,0,0,0,0,0a.61.61,0,0,0,0-.15.54.54,0,0,0,0-.15l.18,0,.18,0,.16,0,.11,0V5.65s0,0,0,0a.75.75,0,0,0,.13.11l.08.05,0-.05a1.27,1.27,0,0,1-.14-.3.64.64,0,0,0-.22-.27,1.4,1.4,0,0,0-.22-.16A.52.52,0,0,0,12.29,5a.41.41,0,0,0-.25.07l-.21.16a1.88,1.88,0,0,1-.23.16.63.63,0,0,1-.32.07h0l-.11,0L11,5.34h0l0,.08s0,.07,0,.08l-.11.11a.05.05,0,0,1,0,0l0,0h0l-.06.06-.05.06h-.21s0,0,0,.06a.24.24,0,0,0,0,.08l0,0,0,0,0-.06a1,1,0,0,0-.46.68.08.08,0,0,0-.13,0,.49.49,0,0,0-.08.12.43.43,0,0,1,0,.1.36.36,0,0,0,0,.11H9.44L9.33,6.7v0a.2.2,0,0,0,0,.07.31.31,0,0,0,0,.17.4.4,0,0,1,0,.17,0,0,0,0,1,0,0v.06a.13.13,0,0,1-.09,0H9.2v.35H9.07v.07a.32.32,0,0,0,.14,0ZM9.22,8s0,0,0,0,0,0,0,0,0,0,0,0S9.22,8,9.22,8Zm0-2.53s0,0,0,0l0,0,.11,0h.11c0-.09,0-.13-.08-.13h0a.12.12,0,0,0-.07,0Zm.15.16s0,0,0,0a0,0,0,0,0,0,0s0,0,0,0S9.35,5.61,9.33,5.61Zm0-.76A.18.18,0,0,0,9.44,5a.27.27,0,0,0,.16.06c0-.1,0-.16,0-.18A.32.32,0,0,0,9.36,4.85Zm.12,3.44s0,0,0,.05,0,.05,0,.05,0,0,0-.05S9.51,8.29,9.48,8.29Zm.11-.63s0,0,0,.06,0,.06,0,.06,0,0,0-.06S9.61,7.66,9.59,7.66Zm0-2.42s0,0,.05,0a.07.07,0,0,0,.06-.07s0-.07,0-.09l-.08,0a.07.07,0,0,0,0,.07Zm0,.83s0,0,.05,0v0s0,0,0,0l0,0v.06ZM9.8,9.79s-.05,0-.05.05v.05l.14-.05A.1.1,0,0,0,10,9.73h0v0l-.1-.06-.1-.06-.06.06v0h0l0,.06S9.78,9.79,9.8,9.79ZM9.75,10s0,0,0,0,0,.05,0,.05,0,0,0-.05A0,0,0,0,0,9.75,10Zm0-4.39H9.8V5.45H9.75ZM9.8,7.46s0,0,0,0,0,0,0,0,0,0,0,0Zm0,2.63a0,0,0,0,0,0,0s0,0,0,0S9.84,10.12,9.8,10.09Zm0-4.8s0,0,0,0,0,0,0,0l0,0A0,0,0,0,0,9.84,5.29Zm0,4.18h.09v0H9.8Zm.15.69s0,0,0,0a0,0,0,0,0,0,0H10ZM10,9.93s0,0,0,.06,0,.06,0,.06,0,0,0-.06S10,9.93,10,9.93ZM10,8.7h.05v0H10ZM10.05,5s0,0,0,0,0,0,0,0,0,0,0,0S10.08,5,10.05,5Zm0,0a0,0,0,0,0,0,0s0,0,0,0,0,0,0,0S10.13,5,10.1,5Zm.06.66s0,0,0,0,0,.06,0,.06,0,0,0-.06A0,0,0,0,0,10.16,5.7Zm0,4h.1l0,0,0,0h-.05ZM10.26,5s0,0,0,.08a.24.24,0,0,0,0,.07h.06l.16,0v0a.24.24,0,0,0,0-.14.21.21,0,0,0-.11-.1l-.06.08A.2.2,0,0,0,10.26,5Zm.26,4.73a.21.21,0,0,0-.12,0s0,0,0,.09h.16Zm.1,0v.06s0,0,0,.06l0,.08h.07V9.56C10.66,9.56,10.62,9.6,10.62,9.69Zm0-4.7s0,0,0,0,0,0,0,0,.05,0,.05,0S10.7,5,10.66,5Zm0,.57s0,0,0,0,0,.05,0,.05.05,0,.05-.05S10.7,5.56,10.66,5.56Zm.11-.85s-.08,0-.11.08h.11Zm0,.79a.93.93,0,0,0,0-.13.53.53,0,0,0,0-.13V5.16a.07.07,0,0,0,0-.07ZM10.89,8l0,0h-.11ZM11,9.32a0,0,0,0,0,0,0s0,.06,0,.06,0,0,0-.06S11.06,9.32,11,9.32Zm.05-1.5s0,0,0,0,0,0,0,0S11.07,7.88,11.08,7.82Zm0,2.43s0,0,0,0,0,0,0,0S11.07,10.3,11.08,10.25Zm0-5.11.1.14a.15.15,0,0,0,.13.06h.08s0,0,0,0,0,0,0,0l0,0-.07,0-.08,0,0,0s0,0,0,0h-.07l0,0Zm.2,4.39s0,0,0,0-.06,0-.05,0a.05.05,0,0,0,.05,0S11.28,9.55,11.28,9.53Zm.16.06a.15.15,0,0,0,.11-.06h-.11ZM11.6,7h.06V6.89H11.6Zm.11.36V7.25h-.05Zm0-.75a.57.57,0,0,0,0,.12,1,1,0,0,0,0,.14.4.4,0,0,0,.07.13.11.11,0,0,0,.1.06h0l0,0,0,0a.38.38,0,0,0,0-.13V6.68a.17.17,0,0,0-.12.06.34.34,0,0,0-.06-.12A.14.14,0,0,0,11.67,6.56Zm.22-1.79s0,.05,0,.09,0,.06.06.07,0,0,0,0v0a.05.05,0,0,0,0-.06Zm0,2.39H12V7.09h-.05ZM12,9.57a.6.6,0,0,1,.2.16h0l0,0a.59.59,0,0,1,0-.11V9.47a.27.27,0,0,0-.14,0A.84.84,0,0,1,12,9.57Zm0,.89h.07a.1.1,0,0,0-.07-.1Zm.15-.63a.71.71,0,0,0,0,.14.1.1,0,0,0,.11.08h0a.83.83,0,0,0,0-.15A.11.11,0,0,0,12.16,9.83Zm0-2.63a.59.59,0,0,0,0,.11c0,.06,0,.09.07.1s.06,0,.06-.1V7.2Zm.08.42v-.1l-.07,0Zm0-1.32s0,0,0,0a0,0,0,0,0,0,0l0,0a.15.15,0,0,1,.13-.12.4.4,0,0,1,.19,0,.1.1,0,0,0-.08,0h-.2C12.3,6.23,12.27,6.25,12.27,6.3Zm.41.08-.08,0a.05.05,0,0,0,0,.06h.18ZM12.58,5h.1V4.93h-.1Zm.1,5.41s0,0,0,.06,0,0,0,0,.05,0,.05,0S12.71,10.4,12.68,10.4Zm.16-3.15.06,0h-.1Zm0-.62s0,0,0,0,0,.06,0,.06.05,0,.05-.06A0,0,0,0,0,12.84,6.63Zm.06-.2a0,0,0,1,0-.06,0,0,0,0,0,0,0,0S12.89,6.45,12.9,6.43Zm-.06.62h.06V7h-.06Zm.21.15s0,0,0,0,0,0,0,0a0,0,0,0,0,0,0S13.05,7.22,13.05,7.2ZM13,6.89h.05v0Zm.05-.82s0,0,0,0,0,0,0,0a.05.05,0,0,0,0-.1Zm0,.19a.39.39,0,0,0,.06.23.7.7,0,0,1,.11.21s0,0,0-.07h0v0a.51.51,0,0,0,0-.09s0-.06,0-.07a.53.53,0,0,1,0-.13S13.18,6.26,13.09,6.26Zm.17.74s0,0,0,0,0,0,0,0,0,0,0,0S13.28,7,13.26,7Zm0-1.3s0,0,0,.06,0,.06,0,0a.06.06,0,0,0,0-.06A.05.05,0,0,0,13.3,5.7Zm0-.2s0,0,0,.06a0,0,0,0,0,0,.05s0,0,0-.05S13.38,5.5,13.35,5.5Zm.22.93v0h-.16Zm.07,3.26c-.09,0-.14,0-.14.11a.22.22,0,0,0,.17-.11Zm0-4s0,0,0,.06,0,.06,0,.06,0,0,0-.06S13.64,5.65,13.62,5.65Zm.05,0s0,0,0,0,0,.06,0,.06,0,0,0-.06S13.7,5.7,13.67,5.7Zm.2,4.23,0,0,0,0A.18.18,0,0,0,14,10l.07-.07L14,9.84h0l-.06,0-.05,0v0Zm.11.47v0h-.06Zm0-.71s0,0,0,.05,0,0,0,0,0,0,0,0S14.06,9.69,14,9.69Zm.16,0a.05.05,0,0,0-.06.06s0,.05.06.05,0,0,0-.05S14.21,9.73,14.19,9.73Zm.36.73c-.07,0-.1,0-.11,0h.05l.06,0,0,0Z"/><path class="cls-1" d="M22.79,5.61l0,0,0,0h0a.09.09,0,0,0,.1-.09.47.47,0,0,0,0-.16.74.74,0,0,1,0,.23v.19c0,.07,0,.15,0,.24a3.3,3.3,0,0,0,.08.38c-.05,0-.08,0-.08.06a.5.5,0,0,0,0,.2l.06.24a.8.8,0,0,1,0,.16v0l.05.16c0,.06,0,.13.07.2s.05.14.07.2,0,.1.05.12l.18.29.31.45a5,5,0,0,0,.35.41q.16.18.27.18h0l.09-.07a.17.17,0,0,1,.1,0h.08l0,0h0s0,0,0,0a.12.12,0,0,0,0,.07.11.11,0,0,0,.1,0s.06,0,.07.06V9.4s0,0,.09,0l.1,0v0l-.07.07-.05.06a.48.48,0,0,0,0,.18.48.48,0,0,1,0,.18.36.36,0,0,1-.09.09c-.06.05-.08.08-.08.1a.64.64,0,0,0,0,.1.41.41,0,0,0,0,.1.19.19,0,0,1-.15-.08.19.19,0,0,0-.15-.07h0a.41.41,0,0,0,0,.09.22.22,0,0,1,0,.09h-.05l-.09-.1-.09-.08-.21,0h-.22a.34.34,0,0,1-.16-.1.6.6,0,0,1-.07-.28l-.07,0-.06,0s0,0,0,0c0-.2,0-.32-.08-.36a.3.3,0,0,0-.18-.06h-.17c-.05,0-.08-.09-.08-.24h-.1l-.1.06V9l0,0,0,0-.12.26a1.11,1.11,0,0,1,0-.13c0-.07,0-.11,0-.13V8.87h-.06l-.19.06V8.86a.13.13,0,0,1,0-.1.15.15,0,0,0,0-.1.39.39,0,0,0-.12-.23.67.67,0,0,0-.18-.17.55.55,0,0,1-.1.18.35.35,0,0,1-.15.13l-.08,0-.17,0-.18.05h-.11a.12.12,0,0,0-.09.06,1,1,0,0,1,0,.1.36.36,0,0,1-.07.1.27.27,0,0,1-.15,0,.05.05,0,0,1-.06-.06.29.29,0,0,0-.06.13.24.24,0,0,1,0,.13h.06s0,.07-.11.13l-.26.16-.29.13L20,9.65a.11.11,0,0,1-.07,0l-.05,0a.51.51,0,0,1,0,.09s0,.06,0,.08l0,0,0,0-.07,0-.08,0V10h0a.1.1,0,0,1-.07,0l-.16,0a.13.13,0,0,1-.09-.14.1.1,0,0,1,0-.09s0,0,0-.11,0-.08,0-.12a.08.08,0,0,0-.08,0c-.06,0-.09,0-.12.09a1,1,0,0,0,0,.18,1.5,1.5,0,0,0,0,.2V10h-.58l-.07,0-.06,0a.41.41,0,0,0-.05-.33.27.27,0,0,0-.23-.18.64.64,0,0,0,.09.34.73.73,0,0,1,.08.33v0a.11.11,0,0,0,0,.05.88.88,0,0,0-.23-.24.91.91,0,0,1-.18-.24l0,0,0,0h0s0,0-.06.05l0,.1a.34.34,0,0,0,0,.1v.07c-.09,0-.15,0-.17-.08a.84.84,0,0,1,0-.17.4.4,0,0,0-.07-.13s-.09,0-.18,0a1.18,1.18,0,0,0-.07.2,1.6,1.6,0,0,1-.05.21H17a.65.65,0,0,1-.09-.13c0-.07-.08-.11-.12-.11h0a.46.46,0,0,0,0,.09.17.17,0,0,0,0,.08.39.39,0,0,1-.29-.19.54.54,0,0,1-.15-.32.31.31,0,0,0,.13,0,.11.11,0,0,0,.06-.11.48.48,0,0,0-.09-.27.4.4,0,0,1-.09-.24.18.18,0,0,1,0-.11.18.18,0,0,0,0-.11c0-.07,0-.11-.12-.11a.11.11,0,0,0-.11.06A.1.1,0,0,1,16,8.7h0a2.41,2.41,0,0,1-.13-.41,2.48,2.48,0,0,1,0-.41,3.84,3.84,0,0,1,0-.39,1.53,1.53,0,0,1,.1-.42A.1.1,0,0,1,16,7H16l.08,0s0,0,0-.09H16a.25.25,0,0,1,.06-.2l.12-.08a.52.52,0,0,0,.13-.06.22.22,0,0,0,.06-.18v0l0,0s0,0,0,0l.1-.22a1.6,1.6,0,0,1,.1-.23.63.63,0,0,1,.13-.2.44.44,0,0,1,.21-.13h.17a.17.17,0,0,0,.07-.1l0-.12a.29.29,0,0,1,.09-.11.37.37,0,0,1,.21,0h0l0,0s0,0,0,0l0,0,0,0a0,0,0,0,0,0,0s0,0,0,0h0a.1.1,0,0,1,.09,0,.18.18,0,0,0,.13,0,.2.2,0,0,0,.2-.13q.06-.12.12-.12h0l.06,0,.06,0,.06,0,.07,0h0l.12.29c.09,0,.14,0,.14-.12A.19.19,0,0,0,18.74,5c-.06,0-.08-.1-.08-.2a.31.31,0,0,0,.17,0,.39.39,0,0,1,.17,0,.57.57,0,0,1,.31.1.67.67,0,0,0,.31.09h0a.15.15,0,0,1,0-.17.34.34,0,0,1,.16-.08l.21,0h.16a.11.11,0,0,1,.07,0l0,0c0-.09,0-.14,0-.15a.37.37,0,0,1,.35.06.28.28,0,0,0,.2.08,1.06,1.06,0,0,0,0-.27.43.43,0,0,1,.06-.26L21,4A.17.17,0,0,0,21,4V3.92a1.55,1.55,0,0,0,0-.31,1.51,1.51,0,0,1,0-.32v-.4L21,2.78V2.72L21,2.59v0a1,1,0,0,1,0-.22l.07-.25.08-.25a1.89,1.89,0,0,0,.06-.21.15.15,0,0,0,0-.06.15.15,0,0,1,0-.06.19.19,0,0,1,0-.08v-.1A1.45,1.45,0,0,1,21.28.7c.08-.18.16-.38.24-.58a.51.51,0,0,0,.24.18.88.88,0,0,1,.09-.2A.19.19,0,0,1,22,0h0a2.57,2.57,0,0,1,.38.42,1.92,1.92,0,0,1,.29.5l.06.23a.44.44,0,0,1,.06.18.72.72,0,0,0,.06.17s0,0,0,.09a.19.19,0,0,1-.09.09c-.09,0-.14.06-.12.13a1.17,1.17,0,0,0,.08.25,2.52,2.52,0,0,1,.13.33.7.7,0,0,1,0,.38.28.28,0,0,0-.11,0,.43.43,0,0,1,0-.07.15.15,0,0,1,0-.06l0-.09a.41.41,0,0,1,0-.09V2.35a.51.51,0,0,0,0-.13.1.1,0,0,0-.1-.06s-.05,0-.08.07l-.08.14-.06.16,0,.09a.09.09,0,0,0,.1.1h.15l.06.36-.12,0a.64.64,0,0,1,.06.1l.06.1s0,0,0,0l0,0s0,0,0,0l0,0,0,0h0a.68.68,0,0,1,0,.21.77.77,0,0,1-.07.16c0,.05-.05.1-.07.14a.9.9,0,0,0,0,.18.43.43,0,0,1-.19,0q-.09,0-.09.12a.3.3,0,0,0,.05.18l.13.1.14.08a.19.19,0,0,1,.1.12.51.51,0,0,0,0,.09.83.83,0,0,1,0,.15c0,.06,0,.12,0,.16s0,.08,0,.09,0,0,.06,0a.2.2,0,0,0,.09,0l0,.13A.2.2,0,0,0,22.79,5.61ZM16.16,8.14h.06V8.09h-.06ZM16.39,7h.07V6.88h-.07Zm.18,2.84h.06l-.06-.07ZM16.83,6s0,0,0,0,0,0,0,0S16.8,6.08,16.83,6Zm.22,1.91a.25.25,0,0,0,.15.21,1.4,1.4,0,0,1,.22.16l.24.32a.57.57,0,0,0,.26.13,1.39,1.39,0,0,1,.29.1h.35a2.37,2.37,0,0,0,.41,0,1.3,1.3,0,0,0,.34-.08,3,3,0,0,0,.35-.13l.42-.18.15-.1.2-.12.19-.11q.09,0,.12,0l.42-.43h.16V8h.16a0,0,0,0,0,0,0v0l-.07-.13v0a.27.27,0,0,1,0-.13c0-.05.06-.08.11-.08h0l.05.06.17.12A.23.23,0,0,0,22,7.5s0-.08-.1-.11l-.15-.08s0,0,.06-.1a.16.16,0,0,0,0-.09V7l0-.15a.46.46,0,0,0-.05-.14s-.06-.06-.09,0,0,0-.05.06l-.07.07H21.4a2.24,2.24,0,0,0,0-.26c0-.12-.09-.18-.19-.18a.2.2,0,0,0-.18.14l-.18-.24,0,0,0,0,.1-.06.06,0s0,0,0-.08,0-.08,0-.15a.2.2,0,0,0-.2.11.94.94,0,0,1-.12.22.47.47,0,0,0-.09-.26.87.87,0,0,0-.15-.13l-.14-.07a.08.08,0,0,1-.05-.09.58.58,0,0,0,0,.13.15.15,0,0,0,0,.06l0,.06v0a0,0,0,0,1,0,0l-.17,0-.17,0h-.07l-.06,0a.1.1,0,0,1-.06,0l-.12-.12h0l-.25.12a3.56,3.56,0,0,1-.52.06L18.26,6a1.74,1.74,0,0,0-.53.17.78.78,0,0,0-.36.38s0,0,0,.09a.44.44,0,0,1,0,.09.83.83,0,0,1-.19.27.38.38,0,0,0-.13.3.47.47,0,0,0,0,.17.29.29,0,0,1,0,.16.21.21,0,0,1,0,.14A.32.32,0,0,0,17.05,7.94Zm2.28-2.46c0,.09.05.14.15.14S19.43,5.48,19.33,5.48Zm.2-.3h.07v0h-.07Zm.12,4.34v0h0Zm.07-4a.15.15,0,0,0,.06-.09.44.44,0,0,0,0-.1h-.08ZM20,9.29s0,0,0,0,0,0,0,0a.05.05,0,0,0,0,0Zm.42-4.58s-.05,0-.05.06,0,.06.05.06,0,0,0-.06S20.41,4.71,20.38,4.71Zm.05.66a.12.12,0,0,0,.08-.12h-.08Zm.12,3.81s0,0,0,.06,0,0,0,0,.06,0,.06,0A.05.05,0,0,0,20.55,9.18Zm.55-1.09h.06L21.1,8ZM21.39,4v.11a.1.1,0,0,0,.08.09L21.59,4a.13.13,0,0,0-.1-.07Zm.13.63V4.47l-.05,0Zm0,3.86s0,0,0,.06,0,.06,0,.06.05,0,.05-.06S21.56,8.45,21.52,8.45ZM22,2.62a.32.32,0,0,0,.07.18c.05.07.1.1.14.1h0l0-.05,0-.06V2.72s0-.07,0-.15a1.16,1.16,0,0,1,0-.16h0s0,0,0,0h0L22,2.59Zm0,2,0-.07h0ZM22.13.42s0,0,0,0,0,0,0,0S22.17.45,22.13.42Zm.48,8s0,0,0,.07,0,.06,0,.06.05,0,.05-.06S22.64,8.38,22.61,8.38Zm.06-3.25a.13.13,0,0,0-.07.08s0,.07,0,.09h.08Zm0,.29s-.05,0-.05.07,0,.07.05.07,0,0,0-.07S22.7,5.42,22.67,5.42Zm.18,1.21h0v0h0ZM23,5.38v0s0,0,0,0Zm.65,4.27V9.6h-.08Zm.12.16a.17.17,0,0,0,.1.17.46.46,0,0,0,.19,0,.26.26,0,0,0,.14,0,.14.14,0,0,0,0-.13.21.21,0,0,0,0-.15.42.42,0,0,0-.12-.08l-.14-.06a.25.25,0,0,1-.12-.11s0,.07,0,.15,0,.13,0,.15Z"/><path class="cls-1" d="M31.57,10.32a.84.84,0,0,1-.26,0,1.29,1.29,0,0,1-.31-.08l-.29-.14a.65.65,0,0,1-.19-.17V9.84a.63.63,0,0,0-.12-.31,1.11,1.11,0,0,0-.18-.19l-.17-.13a.29.29,0,0,1-.12-.15.19.19,0,0,1,0-.08s0-.06,0-.09a.09.09,0,0,0,0-.07h-.11l0,.08,0,.09a.48.48,0,0,1-.11.17,1.45,1.45,0,0,1-.18.16l-.17.16a.23.23,0,0,0-.07.17v.07l.1,0,.1,0s0,0,0,0l0,0h0l0,0s0,.07,0,.07h-.06a.07.07,0,0,0-.06,0s0,.05,0,.1,0,0-.06.08,0,.08-.06.08,0,0-.09,0H29c0-.07-.08-.1-.1-.09h-.14a.28.28,0,0,1-.16.12l-.22.07-.19.09a.17.17,0,0,0-.08.15h-.74a.07.07,0,0,1-.07.06H27.2a1.41,1.41,0,0,1-.62-.13.49.49,0,0,1-.29-.47c0-.08,0-.16,0-.22a.74.74,0,0,1,.07-.21s-.05,0-.1-.05l-.1,0-.09,0s-.09,0-.1.05a.39.39,0,0,1,0,.09s0,.06,0,.08a.11.11,0,0,0,0,0v.05a.29.29,0,0,1-.23-.1.65.65,0,0,1-.11-.22,1.24,1.24,0,0,1,0-.27.83.83,0,0,0,0-.24.12.12,0,0,0,0-.06.75.75,0,0,0-.07-.12l-.07-.11,0-.06,0-.14a1.77,1.77,0,0,0,0-.2,1.12,1.12,0,0,0,0-.21,1.05,1.05,0,0,1,0-.13l.08,0,.06-.07h0a.38.38,0,0,0,0-.16.35.35,0,0,1,0-.14.34.34,0,0,1,0-.15.12.12,0,0,1,.12-.08h0a.07.07,0,0,1,0,0,.11.11,0,0,1,0,.07l.12-.06a.15.15,0,0,0-.12-.1l-.15-.05-.13,0A.12.12,0,0,1,25.3,7a.08.08,0,0,1,0-.07l.09,0,.1,0a.13.13,0,0,0,0-.1H26V6.63l-.34-.13V6.42a.56.56,0,0,1,.09-.36.48.48,0,0,1,.2-.15l.22,0a.16.16,0,0,0,.14-.09l-.06,0s-.05,0-.06,0v0a.2.2,0,0,1,.07-.16.75.75,0,0,1,.18-.07l.2,0a.34.34,0,0,0,.15-.06s0,0,0-.09a.22.22,0,0,0,0-.08l.11-.1A.43.43,0,0,0,27,5v-.1l-.13-.19V4.61l.06-.06s.05,0,.07,0l0,0,0,0,.06,0,0,0h.52a.13.13,0,0,0,0,.07.05.05,0,0,0,.05,0A.35.35,0,0,0,28,4.61a1.37,1.37,0,0,0,.17-.17.81.81,0,0,1,.19-.18.48.48,0,0,1,.33-.07.46.46,0,0,1,.18.1l.32.22.33.25.23.16.12.12.09.2a1,1,0,0,1,.06.22.4.4,0,0,1,0,.15.19.19,0,0,1,.12.07l.09.13a1,1,0,0,0,.08.11.17.17,0,0,0,.12,0,.17.17,0,0,0,0,.12l.06.17c0,.06.05.12.07.17a.35.35,0,0,1,0,.12v.08l0,0h0v0a.08.08,0,0,0,0,0,.6.6,0,0,1-.24,0,.43.43,0,0,0-.22-.06,1.54,1.54,0,0,0,0,.16q0,.15.09.15h.51s0,0,0,0a.61.61,0,0,1-.05.12l-.06.13s0,.06,0,.08l.13.44q0,.11.12.09c.06,0,.09,0,.1.11s0,0-.06.11-.05.09,0,.11a.2.2,0,0,0,.06.11l.11.07.1.08a.1.1,0,0,1,0,.1l0,.28s0,0,.06.07l.12.07.14.07a.19.19,0,0,1,.08.07v.05a1.91,1.91,0,0,1,.06.21c0,.09,0,.15.05.16a.3.3,0,0,0,.15.08l.29.12.33.15a.76.76,0,0,1,.22.14c-.07,0-.12.05-.13.09a.19.19,0,0,0,0,.13l0,.14a.22.22,0,0,1,0,.13.5.5,0,0,1-.22.1,2.85,2.85,0,0,1-.5,0,.21.21,0,0,1-.12,0l-.07-.09a.93.93,0,0,0-.05-.1A.2.2,0,0,0,31.57,10.32ZM26.49,8.43a.58.58,0,0,1,.13.24.37.37,0,0,0,.14.2l.21.07a.4.4,0,0,0,.15,0h.3l.19,0,.09-.05.09-.08L28,8.75l.17,0a.41.41,0,0,0,.16,0,.57.57,0,0,0,.28-.29L28.75,8s.05-.07.12-.08L29,7.89v0l-.08-.06a.11.11,0,0,1-.06-.06s0,0,.06-.1.07-.08.08-.08a6,6,0,0,0,.18-.8A4.88,4.88,0,0,0,29.26,6a.4.4,0,0,0-.08-.27A.46.46,0,0,0,29,5.54a.88.88,0,0,0-.28-.06l-.31,0a.83.83,0,0,0-.2.08l-.31.18-.3.19a.85.85,0,0,0-.15.1.63.63,0,0,1,0,.12c0,.07,0,.11,0,.13l-.07,0h-.07L27,6.55h0v0a.1.1,0,0,0,0,.09s0,.05,0,.12,0,.12,0,.15a.27.27,0,0,1,0,.12s0,.09,0,.14l-.07.2a.48.48,0,0,1-.16.26.71.71,0,0,1-.22.13l-.19.06c-.05,0-.08,0-.08.07a.17.17,0,0,0,.07.16.5.5,0,0,0,.16.05l.18,0a.14.14,0,0,1,.11.09.65.65,0,0,1-.12.11A.47.47,0,0,1,26.49,8.43Zm.8.8s0,0,0,0-.05,0,0,0,0,0,0,0S27.29,9.25,27.29,9.23Zm.13-.12s-.05,0-.05.06,0,.06.05.06,0,0,0-.06S27.46,9.11,27.42,9.11Zm.07-3.46h.06V5.58h-.06ZM28,9.11,28.11,9a.13.13,0,0,0,.07-.12H28Zm.65-4.73s0,0,0,0,0,0,0,0l0,0ZM28.6,8.92h.07V8.87H28.6Zm.07.19s-.05,0-.05.06,0,.06.05.06a.06.06,0,0,0,0-.12Zm.13-.94a.08.08,0,0,0,.06.08h.22L29,8l-.13.05A.11.11,0,0,0,28.8,8.17Zm.07-3.74s0,0,0,.06,0,.06,0,.06.05,0,.05-.06S28.9,4.43,28.87,4.43Zm.74,4.32h.12V8.62h-.12Z"/><path class="cls-1" d="M41.86,10.3l-.17.06-.16.08c-.05,0-.07.06-.09.12s0,.1-.08.1c0-.19,0-.3-.08-.34a.19.19,0,0,0-.18-.06l-.24,0a.33.33,0,0,1-.25,0,.17.17,0,0,1-.08-.12.41.41,0,0,1,0-.11.29.29,0,0,0,0-.09s-.06,0-.14,0a.16.16,0,0,0-.16.11.2.2,0,0,1-.21.12.25.25,0,0,1,.08-.18.21.21,0,0,0,.08-.17.11.11,0,0,0,0-.1l-.11,0h-.13a.18.18,0,0,1-.11,0,.43.43,0,0,1-.1-.1c0-.06-.08-.09-.1-.09h-.06a.18.18,0,0,0-.16.07.19.19,0,0,1-.15.08s0,0-.06-.08a1.62,1.62,0,0,0-.1-.18l-.09-.19a.48.48,0,0,1,0-.12V9s0,0,0-.06,0-.05,0-.06a.41.41,0,0,0-.1-.11q-.09-.08-.09-.09a.3.3,0,0,1-.05-.1.53.53,0,0,0,0-.11l-.18-1.58a1.16,1.16,0,0,0-.06-.16.87.87,0,0,0-.09-.17l-.13,0-.12,0a.24.24,0,0,0,0,.12s0,.08,0,.08,0,0-.07,0a.16.16,0,0,0-.09,0,.66.66,0,0,0,0,.13c0,.07,0,.12,0,.13l0,0,0,0h-.53l-.1.11-.1.1,0,0-.07,0a.62.62,0,0,1,0,.16s0,.07.07.14a.39.39,0,0,0-.17.07.22.22,0,0,0-.09.1l-.06.13L36.65,8l-.06,0-.06,0h0s0,0,0,0,0,.15,0,.17l.08,0a.13.13,0,0,1,.08,0,.4.4,0,0,1,0,.21.28.28,0,0,0-.2.05.53.53,0,0,0-.11.14,1.62,1.62,0,0,1-.1.18.46.46,0,0,1-.13.18.16.16,0,0,1-.12,0h-.26a.08.08,0,0,0-.08.07q0,.11,0,.33a.55.55,0,0,1-.1.34.8.8,0,0,0-.3,0,.59.59,0,0,0-.18.13.94.94,0,0,0-.14.19,1.7,1.7,0,0,1-.17.23.27.27,0,0,1-.07-.14l0-.15a.2.2,0,0,0-.08-.1.35.35,0,0,0-.21,0s0,0-.08.05l-.06.08,0,0,0,0h.06l0,0,.07,0,0,0,0,0v0s0,0,0,0v0l-.07.06-.07.07-.06.2a1.08,1.08,0,0,0,0,.2.61.61,0,0,1-.22-.33c-.07-.19-.13-.4-.19-.63s-.1-.46-.14-.67a4,4,0,0,1-.05-.45V8.53l.06,0,.07,0h0L34,8.53a.3.3,0,0,1,.07-.08v0a1.2,1.2,0,0,1-.2-.11l-.21-.12c0-.15,0-.26,0-.35V7.53a2.19,2.19,0,0,1,0-.36,2,2,0,0,0,0-.35,2.86,2.86,0,0,0,0-.42,2.77,2.77,0,0,1,0-.42V6s0,0,0-.06a.23.23,0,0,1,.08-.07v0a2.41,2.41,0,0,1-.11-.25c0-.07,0-.14-.07-.22a1,1,0,0,1,0-.23.24.24,0,0,1,0-.15.33.33,0,0,0,0-.14v0a.27.27,0,0,0,0-.1l0-.1a.06.06,0,0,1,0-.06h.1a.27.27,0,0,0,.13,0,.34.34,0,0,0,.1-.21s0,0,0-.12,0-.1,0-.12a.39.39,0,0,1-.15,0q-.09,0-.09.09v0l.15.14v.07l-.1,0a.27.27,0,0,1-.1,0V3.88a.27.27,0,0,0,.23-.11.5.5,0,0,0,.07-.27.38.38,0,0,1,.14,0,1.06,1.06,0,0,1,.21.11,1.1,1.1,0,0,1,.21.14.45.45,0,0,1,.12.12.27.27,0,0,0-.15.11.23.23,0,0,1-.14.08h0l-.06,0-.06,0v.14h.1l.18,0a.38.38,0,0,1,.17.06s.08.06.08.09a.37.37,0,0,1-.11.27.41.41,0,0,0-.11.28.15.15,0,0,0,.07.12l.14.07a.71.71,0,0,1,.14.1.24.24,0,0,1,.07.17s0,0,0,.1a.55.55,0,0,1,0,.09.43.43,0,0,1,0,.1.78.78,0,0,0,0,.09c0,.1,0,.16.11.19a.51.51,0,0,0,.2,0,3.28,3.28,0,0,0,0,.39,2.75,2.75,0,0,0,.05.31.41.41,0,0,1,.07.13l.07.14V7l-.1.06-.1.06V7.2a2.13,2.13,0,0,0,.14.38c0,.06.07.09.11.09h.11s.1.07.17.18l.06-.06a1.46,1.46,0,0,1,0-.55A.31.31,0,0,1,35.9,7l.23-.11a.5.5,0,0,0,.25-.25l.22-.42a1,1,0,0,1,.32-.37s0,.08,0,.14a.18.18,0,0,0,.1.12l.06-.08s0-.05.07-.05,0,0,.07,0l.06,0,.13,0h.12a.49.49,0,0,0,0-.12c0-.06,0-.1,0-.12s0,0,.06,0l.07,0,0,0s0,0,0,0,0,0,0-.09l0-.16c0-.06,0-.13,0-.18a.37.37,0,0,1,0-.13.47.47,0,0,1,.07-.2.38.38,0,0,1,.13-.16.08.08,0,0,1,.07.07.49.49,0,0,1,0,.12.24.24,0,0,0,0,.12.08.08,0,0,0,.07.08l0-.06A.17.17,0,0,0,38,5a1.66,1.66,0,0,1,0-.27,2.42,2.42,0,0,0,0-.25.08.08,0,0,1,0,0l.06,0,.06,0a.18.18,0,0,1,.07,0v0a.14.14,0,0,1,0,.11.42.42,0,0,0,0,.16,0,0,0,0,1,0,0l0,0,.06-.11.06-.1h0a.38.38,0,0,1,.17,0,1,1,0,0,0,.17.1l.19.12a.43.43,0,0,0,.16.07h.2a.5.5,0,0,1,0,.14.58.58,0,0,0,0,.12.4.4,0,0,0,.12.16l.16.12a.58.58,0,0,1,.14.13.38.38,0,0,1,.06.22.23.23,0,0,1,0,.14.28.28,0,0,0,0,.12.1.1,0,0,0,.07.11.12.12,0,0,1,.06.12v.08a.69.69,0,0,1,0,.16,1,1,0,0,1,0,.17v0a.27.27,0,0,0,0,.11.13.13,0,0,0,.07.06L40,7a.2.2,0,0,1,.08.08.16.16,0,0,1,0,.1v.11s0,0,.07.08a.21.21,0,0,1,.05.1s0,.08,0,.14a1.17,1.17,0,0,1,0,.2c0,.07,0,.13,0,.2a1.05,1.05,0,0,1,0,.13l.12.17.14.66.34.31.31.24.27.18.24.33.09.08ZM33.94,5.1l.22-.21v0h-.23Zm.07,0s0,0,0,.06,0,.06,0,.06.07,0,.07-.06S34.05,5.1,34,5.1ZM34,8h.08V7.93Zm.15.71h.05V8.66Zm.12-4s0,0,0,0,0,0,0,0,0,0,0,0A0,0,0,0,0,34.28,4.69Zm0-.25s0,0,0,0,0,0,0,0l0,0Zm.14,5.2h0V9.57h0Zm.11-1.78a.9.9,0,0,0,.09.34,2,2,0,0,0,.12.25s0,0,0,0h0c.06,0,.1-.05.13-.16a.55.55,0,0,1,.16-.3V7.93l0,0a.05.05,0,0,0,0,0Zm.08-.55a1,1,0,0,0,0,.23.14.14,0,0,0,.15.12.21.21,0,0,0,.14,0,.33.33,0,0,1,.14,0v0h-.2l0-.16a.5.5,0,0,1,0-.12s0-.08,0-.12v0s0,0,0,0l.05,0a.07.07,0,0,0,0,0s0,0,0-.09a.82.82,0,0,0,0-.14c0-.06,0-.08-.11-.08a.48.48,0,0,1-.11.32A.5.5,0,0,0,34.61,7.31Zm.2-.89H35a.1.1,0,0,0,0-.08h-.14Zm1,1.58h.08V7.93h-.08ZM37,6.68a.29.29,0,0,0,0-.1s0-.08,0-.1l0-.06s0-.06,0-.07,0,0-.06-.08H37l0,.05s0,0,0,0Zm.66.07s0,0,0,.06,0,.06,0,.06a.06.06,0,1,0,0-.12Zm.07-.66A.15.15,0,0,0,37.79,6h-.08Zm.2.45L38,6.48h-.07ZM38,5.73a.24.24,0,0,0,0,.13s.06,0,.13,0A.33.33,0,0,0,38,5.62Zm.25.38s0,.08.05.09l.12,0s0-.08,0-.09a.18.18,0,0,0-.11,0Zm1.26.24s-.06,0-.06.07a.05.05,0,0,0,.06.06s0,0,0-.06S39.52,6.35,39.49,6.35Zm.13,2s0,0,0,0,0,0,0,0a0,0,0,1,0,0-.06Zm.13-.69.09.13A.51.51,0,0,0,40,8L40,7.9a.36.36,0,0,0-.12-.2l-.19-.16-.06,0,0,0a.49.49,0,0,0,0,.12.25.25,0,0,0,0,.09v0Zm0-.5h.07V7.13h-.07ZM40,7.13c-.05,0-.07,0-.07.08a.06.06,0,0,0,.07.07s0,0,0-.07S40.05,7.13,40,7.13ZM40,8.58l.07.07.07-.06a.24.24,0,0,0,.08-.09V8.43l0,0a.05.05,0,0,0,0,0,.15.15,0,0,0-.08,0L40,8.5v.08Zm.24.28s0,0,0,.06,0,.06,0,.06.07,0,.07-.06S40.25,8.86,40.2,8.86Zm.08.33a.06.06,0,1,0,.06.06A.05.05,0,0,0,40.28,9.19Zm.35.29a.14.14,0,0,0,.16.16.28.28,0,0,0,0-.15S40.7,9.46,40.63,9.48Zm0,.56h.12l.2,0c.09,0,.13,0,.13,0V9.91L41,9.85l-.14,0-.11,0,0,.06h0a0,0,0,0,1,0,0h0l0,0Z"/><path class="cls-1" d="M43.25,8.7V8.56c0-.08,0-.16,0-.25l0-.25a1.18,1.18,0,0,1,0-.16V7.73a1.8,1.8,0,0,1,.1-.6,1.71,1.71,0,0,0,.11-.59,4.94,4.94,0,0,0-.14-1.14,4.77,4.77,0,0,1-.14-1.12.53.53,0,0,1,.11-.4,1.41,1.41,0,0,0,.17-.18.23.23,0,0,0,0-.09.17.17,0,0,1,0-.08l-.05,0s0,0,0,0l-.06.07a.15.15,0,0,0-.06.07V3a.12.12,0,0,1,.12.07.19.19,0,0,1,0,.15.12.12,0,0,1,.12-.08.22.22,0,0,0,.15-.06v0a.31.31,0,0,0-.1-.2.24.24,0,0,0-.18-.12.1.1,0,0,0-.09,0,.12.12,0,0,1-.11.05H43l.14-.13A.31.31,0,0,0,43,2.57c-.07,0-.1-.1-.1-.21a.4.4,0,0,0,.23-.08.86.86,0,0,0,.2-.18l.2-.18a.36.36,0,0,1,.24-.08,0,0,0,0,0,0,0v0s0,0,0,.07a.17.17,0,0,0,0,.07.05.05,0,0,0,0,0l0,0,.09,0,.11,0h0c.09,0,.18.11.28.32a5.59,5.59,0,0,1,.27.73c.08.27.14.52.2.77a2.83,2.83,0,0,1,.09.48V5.48s0,0-.05.06a.25.25,0,0,0,0,.07,2.23,2.23,0,0,0,.08.56,4.44,4.44,0,0,0,.19.55l0,0,0,0a.7.7,0,0,1,.2.22l.13.24a1.57,1.57,0,0,0,.12.19.17.17,0,0,0,.14.08.36.36,0,0,0,.24-.08A.93.93,0,0,0,46,7.26a1.46,1.46,0,0,1,.16-.19A.38.38,0,0,1,46.45,7h.1a.45.45,0,0,0-.14.07s0,.06,0,.13h.52s.06,0,.08-.11,0-.15,0-.23a1.28,1.28,0,0,1,.06-.23.16.16,0,0,1,.15-.11v.08l0,.07s0,0,0,.06a.15.15,0,0,0,.06.11.19.19,0,0,0,.1,0,.23.23,0,0,0,.11,0h.12c0-.09,0-.15-.08-.16a.19.19,0,0,1-.12-.14V6.4a.3.3,0,0,0,0-.14.33.33,0,0,0,0-.1.41.41,0,0,0,0-.09h.07l.06,0,.08,0h0s.09,0,.14-.13l.08-.14a.22.22,0,0,1-.17,0,.21.21,0,0,1-.08-.17h.39a.31.31,0,0,0,0,.11.25.25,0,0,0,0,.1H48a1.19,1.19,0,0,1,.31-.49.72.72,0,0,1,.51-.24h0l.53.14h0l.06,0c0-.11,0-.19-.09-.22a.88.88,0,0,0-.2-.09L49,4.87a.2.2,0,0,1-.09-.2h.14l.09.07.1.06a.6.6,0,0,0,.25,0l.24,0a1.52,1.52,0,0,1-.12-.5.1.1,0,0,1,.12-.08l.24,0a.22.22,0,0,0,.25-.08s0,0,.05,0a.11.11,0,0,1,0,.08l-.05.09a1.29,1.29,0,0,0-.09.2l-.09.24A.52.52,0,0,0,50,5a.26.26,0,0,0,0,.07v.06L50.12,5a.68.68,0,0,1,.12-.12c0,.09,0,.15,0,.17a.29.29,0,0,0,.13,0h.15s.08,0,.09.06a.61.61,0,0,1,.05.11.64.64,0,0,0,.08.14c0,.07.07.13.1.19l-1-.11-.06.11H50l.27,0a1.6,1.6,0,0,1,.26.08c.07,0,.12.08.13.14l-.84-.06s0,0,0,0l.13.1.14.1.06.06a.08.08,0,0,1-.05.08l-.12,0-.12.06a.1.1,0,0,0-.05.08h-.34a.25.25,0,0,0,0,.09s0,.08,0,.1,0,.07-.06.07l-.06,0a.31.31,0,0,0-.1.08.93.93,0,0,0-.16.23l-.07.07L49,7.12v-.2h-.12a.61.61,0,0,0,0,.24.88.88,0,0,1,0,.24.33.33,0,0,1-.1.22l-.24.21A1.69,1.69,0,0,1,48.3,8a1.33,1.33,0,0,1-.23.1.31.31,0,0,0-.27-.2h-.07a.61.61,0,0,0,.33.43,3.44,3.44,0,0,0,.64.29q.36.12.72.21A2.71,2.71,0,0,1,50,9a.33.33,0,0,1,.15.13.76.76,0,0,1,.08.11.39.39,0,0,0,.1.08.38.38,0,0,0,.2,0v0a.08.08,0,0,1,0,0c0,.11-.07.16-.21.13a.09.09,0,0,1,0,.06.11.11,0,0,1,0,.07l0,0,0,0h-.07l-.33-.32V9.36L50,9.23h-.19a.72.72,0,0,0,.15.42.69.69,0,0,0,.38.28l-.21.44a1.3,1.3,0,0,1-.38.1q-.1,0-.12-.09c0-.06,0-.13,0-.22a.43.43,0,0,0-.09-.25v.15c0,.07,0,.1-.14.1h0s0-.05,0-.1a.41.41,0,0,1,0-.1V9.89l-.17-.1a.27.27,0,0,0-.16,0,.3.3,0,0,0-.28.16.82.82,0,0,0-.13.31h0a.12.12,0,0,1-.12-.08,1.8,1.8,0,0,0,0-.19.45.45,0,0,0-.08-.17s-.09-.06-.17,0l-.09-.27a.51.51,0,0,0-.18-.25l-.1.11a1.17,1.17,0,0,1-.16.15,1.79,1.79,0,0,1-.15.14.22.22,0,0,1-.12.06l0-.08a.65.65,0,0,0-.09-.16c0-.06-.07-.11-.1-.16s-.07-.08-.11-.08-.1,0-.12.14a1.42,1.42,0,0,1-.06.21,1.19,1.19,0,0,0-.1-.17c0-.07-.09-.11-.14-.11h0a.14.14,0,0,1-.07,0l-.07,0h-.06a.56.56,0,0,1,0-.1.77.77,0,0,0,0-.15.83.83,0,0,0,0-.15.08.08,0,0,0-.08-.06l-.12,0A.28.28,0,0,1,46,9a.15.15,0,0,1-.1,0,.27.27,0,0,1-.08-.11c0,.11-.07.16-.15.16V8.9s0-.06,0-.07l0,0,0,0v0s0,0,0,0v0l-.17-.06-.16-.06c-.06,0-.09-.08-.07-.12a.31.31,0,0,0,0-.15h-.24a.25.25,0,0,0,0,.08v.12a.34.34,0,0,1,0,.11s0,.05,0,.05h-.51a.08.08,0,0,0,0,0,.11.11,0,0,0,0,0,.17.17,0,0,0,.15.12c.06,0,.1.06.11.15a2,2,0,0,0,0,.21v.21s0,.08,0,.14a.81.81,0,0,1,0,.22.53.53,0,0,1,0,.19.11.11,0,0,1-.11.09.86.86,0,0,1-.28,0,.86.86,0,0,0-.28,0h0a.32.32,0,0,0,0,.11.43.43,0,0,0,0,.1s0,0,0,.06l0,.06s0,.05.06.08a.23.23,0,0,0,.08.07h-.07a.47.47,0,0,1-.26-.08.5.5,0,0,0-.27-.08V10a.06.06,0,0,0,.07,0,.09.09,0,0,0,.06,0,.26.26,0,0,0,0-.14.66.66,0,0,1,0-.13h-.15c0-.07,0-.15,0-.26a.15.15,0,0,0-.17-.15Zm-.06-6.13a.13.13,0,0,0,.13.08V2.57ZM43.4,4h.05V3.9H43.4Zm.25,6.53h-.07v-.07Zm.2-4.62.06.06L44,6c0-.06.05-.12.08-.19a.38.38,0,0,0,.06-.19V5.54a.52.52,0,0,0-.15.13,1,1,0,0,0-.12.14v.06Zm.24-3.23a.08.08,0,0,0-.09.08,1.15,1.15,0,0,0,0,.14V3l.1,0c.07,0,.1-.07.1-.09a.84.84,0,0,0,0-.1.34.34,0,0,0,0-.1Zm.56,6.52h.06V9.1h-.06Zm.06-.71a.48.48,0,0,0,.15,0,.4.4,0,0,0,.12-.1h-.27Zm.52-.55h.08l-.08-.06Zm1.06-.38s0,0,0,.06,0,.07,0,.07.05,0,.05-.07S46.33,7.52,46.29,7.52Zm.07.13s0,0,0,0,0,0,0,0a.05.05,0,0,0,0,0S46.37,7.65,46.36,7.65Zm.26.13c.05,0,.07-.06.07-.13h-.07Zm.07,1V8.76h-.07Zm.05-.66,0,.05s0,0,0,0,.1,0,.11,0,0-.05,0-.1a.15.15,0,0,0,0-.09s0,0-.08,0h0s0,0,0,0l0,.07v.07Zm.15.53s.06,0,.06-.12V8.5ZM47.07,7h.08l-.08-.07Zm.15,1.11h.05l-.05,0Zm0,.33h.05V8.37h-.05Zm.58,1.2h0l0,0,.06.06,0,0,0,0-.2-.06Zm.07-2.71,0,0,0,0v.46h.07L48,7.3a.41.41,0,0,1,.12-.18L48,7a.49.49,0,0,0-.08-.1h-.06Zm0-.73a.26.26,0,0,0,.08.17c0,.06.1.1.14.1h0l.26-.09a.21.21,0,0,0,.15-.2,0,0,0,0,0,0,0l-.07-.07L48.4,6V5.93l0-.06,0,0s0,0,0,0l-.1-.11-.09-.09-.07,0v.53h-.07l-.06,0-.07,0h-.07l0,0Zm.2,1.53v.1l.06.08.23-.09c.07,0,.1-.09.1-.19v-.1a.07.07,0,0,0-.06-.07l-.13.12V7.48a.17.17,0,0,1,0-.12.14.14,0,0,0,0-.11.16.16,0,0,0,0-.1s-.05,0-.11,0a.1.1,0,0,0-.1.07.48.48,0,0,0,0,.18.61.61,0,0,0,0,.19C48.06,7.63,48.07,7.68,48.07,7.72Zm0-.93,0,0,0,0h.07l-.07-.07h-.06Zm.2,2.77s-.06,0-.06.07a.05.05,0,0,0,.06.06s0,0,0-.06S48.3,9.56,48.27,9.56Zm.06-.07h.16a.17.17,0,0,0-.06-.12l-.1-.08Zm.13-2.57s.07.07.14.07l.08,0a.09.09,0,0,0,0-.09v0l0,0-.05,0h0l-.08.06Zm.07,2.57s-.05,0-.05.07,0,.07.05.07,0,0,0-.07S48.57,9.49,48.53,9.49Zm0-4a.33.33,0,0,0,0,.17.34.34,0,0,1,0,.19h.08a.64.64,0,0,1,0-.2.23.23,0,0,1,.14-.13.28.28,0,0,0-.24-.14h0l0,0,0,0Zm.33,3.31a.15.15,0,0,0-.08.14h.08Zm.2.34h.07V9Zm.12-3.33a.49.49,0,0,0,0,.12,1,1,0,0,0,.06.16,1,1,0,0,0,.09.15.12.12,0,0,0,.09.06h.08V6.2a.08.08,0,0,0,0-.06l0-.07a.16.16,0,0,1,0-.08s0,0,0,0,0,0,0,0l0-.06a0,0,0,0,1,0,0,.43.43,0,0,0,0,0,.21.21,0,0,0,0-.12.83.83,0,0,0-.11-.13h0a.14.14,0,0,0-.13.08A.29.29,0,0,0,49.18,5.77Zm0,.49h.09a.12.12,0,0,0-.09-.12Zm.15-1.65h.06l.1,0,.09,0h-.24a.1.1,0,0,1-.09-.08Zm.18,5.47s.05,0,.05.07,0,.07-.05.07,0,0,0-.07S49.48,10.08,49.51,10.08Zm.07-.72s0,0,0,0,0,0,0,0,0,0,0,0S49.6,9.37,49.58,9.36Zm.26-4.08s0,0,0,0,0,0,0,0a.05.05,0,0,0,0,0Zm.07,1.38a.08.08,0,0,1-.06,0l-.07,0s0,0,.06,0S49.92,6.64,49.91,6.66Zm0-2.74V4h0V4a.08.08,0,0,1-.08,0V4c0-.07,0-.11.07-.12Zm.56.89s0,0,0,0l-.09,0-.11,0h-.09s0,0,0,0l.09,0,.11,0Zm.71.47s0,0-.07-.08L51,5.13l0-.06,0-.07-.29-.07-.14,0s0,0,0-.06,0-.07,0-.14l.23-.06a.5.5,0,0,1,.15,0l.22.12L51.5,5a.3.3,0,0,1-.16.26,2.83,2.83,0,0,1-.25.17c-.05,0-.07-.05-.07-.12Zm-.47-.4s0,0,0,0,0,0,0,0,0,0,0,0S50.7,4.9,50.71,4.88Zm.33-.8v.15L51,4.15Zm.2.42.09,0a.08.08,0,0,1,.06.08h-.25a.17.17,0,0,1,0-.07A.08.08,0,0,1,51.24,4.5Z"/><path class="cls-1" d="M54,10.3l-.11.07-.11.07a.4.4,0,0,1-.27-.09.44.44,0,0,0-.28-.11l-.1,0,0,.06-.06.06a.28.28,0,0,1-.15,0v-.23l0,0-.06,0s-.06-.05-.1-.1l-.1-.18a1.62,1.62,0,0,1-.1-.18.62.62,0,0,1,0-.11V9.59a.12.12,0,0,1,.07-.07l-.21,0a.91.91,0,0,1-.17-.08c0-.25-.08-.49-.11-.7A5.27,5.27,0,0,1,52,8V7.52A1.59,1.59,0,0,1,52,7a.52.52,0,0,1,.06-.14.33.33,0,0,0,.07-.14v0a.9.9,0,0,0,0-.25.7.7,0,0,1,0-.27V6a2.46,2.46,0,0,1,0-.26,1.87,1.87,0,0,1,0-.25.54.54,0,0,1,.06-.18V1.58a.29.29,0,0,0,.11-.19.2.2,0,0,0-.05-.14.18.18,0,0,1-.06-.14s0-.08.14-.12a.62.62,0,0,1,.19-.06c.07,0,.1,0,.1.06s0,.07.08.07.1,0,.11-.12,0-.14,0-.18a.5.5,0,0,1,.23.05.2.2,0,0,1,.14.2.16.16,0,0,1,0,.12.48.48,0,0,1-.1.12.17.17,0,0,0,0,.05.09.09,0,0,0,.06,0l.06,0s0,0,0-.05v.1h.15s.06,0,.06-.1V1.19a.62.62,0,0,1,0-.1.68.68,0,0,1,0-.14l0-.14L53.24.74s.06-.06.09-.06h0a.18.18,0,0,1,.21.15,1.09,1.09,0,0,1,0,.31.26.26,0,0,0,.18,0,.23.23,0,0,0,.07-.1l.06-.1s0,0,.1,0,0,0,.07.09l.11.21.09.22c0,.08,0,.13,0,.15a.94.94,0,0,1-.07.34,2.58,2.58,0,0,0-.09.35s0,.06,0,.06H54s0,0-.05,0a.57.57,0,0,0-.1.11,2,2,0,0,0-.09.2.82.82,0,0,0-.06.19.92.92,0,0,0,0,.15l0,.09a.37.37,0,0,0,.07.1v.06a.7.7,0,0,0,0,.13.63.63,0,0,0,0,.12.26.26,0,0,0,0,.1.39.39,0,0,1,0,.09l-.06.13a.57.57,0,0,1-.06.15.3.3,0,0,0,.08.08L53.9,4a.22.22,0,0,1,.09.1.35.35,0,0,1,0,.2.41.41,0,0,1,0,.16.33.33,0,0,0,0,.15v.1l0,.1.14,0,.19,0,.2,0h.2l.09,0s0-.06,0-.13H55c.09,0,.15,0,.16.05a.11.11,0,0,0,.1,0h0a0,0,0,0,0,0,0s0,0,0-.07.06-.06.08-.06h0a.18.18,0,0,1,.14,0l.08.09.08.09a.2.2,0,0,0,.14,0A.14.14,0,0,0,56,5a.36.36,0,0,0,0-.09.41.41,0,0,1,0-.09.27.27,0,0,1,.19,0,.82.82,0,0,1,0,.27.36.36,0,0,1-.08.09s0,0-.07.06,0,.05,0,.11v.12a.25.25,0,0,0,0,.09c0,.06.06.09.08.1s0,0,0,.09,0,.09,0,.14a.25.25,0,0,1-.08.12.07.07,0,0,1-.1,0s-.05,0-.08-.06l-.06-.07h-.06s0,0,0,0a.07.07,0,0,0,0,0v.06h0a.66.66,0,0,0,0,.13.9.9,0,0,1,0,.12v.13l-.1,0-.09,0h0a.11.11,0,0,0-.11.06l-.06.13a.61.61,0,0,1-.07.14.18.18,0,0,1-.14.06.68.68,0,0,1-.28-.07.65.65,0,0,0-.29-.07H54.5a.25.25,0,0,0-.08,0,.56.56,0,0,0,0-.1.34.34,0,0,1,0-.1l.06-.11a.42.42,0,0,0-.09-.14L54.33,6a.64.64,0,0,1-.1-.13.4.4,0,0,1,0-.18,1.36,1.36,0,0,1,0-.2c0-.09.07-.14.12-.14l0,0,.08,0,0,0,0,0a.39.39,0,0,0-.1-.22.26.26,0,0,0-.2-.11h-.1l.1.06.11.07v0s-.05.08-.14.15a.64.64,0,0,0-.2.21.68.68,0,0,1-.12.23l-.13.12a.65.65,0,0,0-.11.12.49.49,0,0,0,0,.24h0l-.19,0-.09,0-.05-.06A.85.85,0,0,1,53.2,6h0l0,0Q53,6,53,6.14a.24.24,0,0,0,.05.12l.13.15a.42.42,0,0,0,.16.11.2.2,0,0,0,.15,0,.38.38,0,0,1-.23.25.5.5,0,0,0-.24.19s0,.06,0,.06h.15l.08,0,0,.07s0,.06,0,.07h.08a.57.57,0,0,1,0,.33,2,2,0,0,0,0,.37h.11V8a.21.21,0,0,1-.06.1V8.7l-.12.06a.09.09,0,0,0,0,.07.29.29,0,0,0,0,.09s0,.06,0,.1a.58.58,0,0,0,.18,0l.16-.08a.68.68,0,0,0,.23.35.92.92,0,0,0,.37.22l.06,0,.07,0h.15l.22,0,.24,0h.16a1,1,0,0,0,.25,0c.08,0,.11,0,.11.13a.69.69,0,0,0,.25,0,1,1,0,0,1,.25,0h.13c.07,0,.1,0,.1.07l0,.07,0,.05a.67.67,0,0,0,0,.17c0,.09,0,.14,0,.16l0,0h0s0,0,0,0l-.16.06-.15.06a.43.43,0,0,0-.14.12l-.06.08a.23.23,0,0,1-.09.06h-.42l-.07-.06-.15.11.08.07-.09,0a.16.16,0,0,1-.09,0H54.8l-.16,0-.18-.06-.18-.05-.09,0-.08-.09L54,10.3h0ZM52.28,7.93h.08V7.8Zm.08-6s.06.06.13.06a.33.33,0,0,0,.15,0,.4.4,0,0,1,.17,0V1.67a.32.32,0,0,0-.24.09Zm.13,5.9s0,.08,0,.1a.54.54,0,0,0,0,.1c.08,0,.13,0,.14-.06a.37.37,0,0,0,0-.13,1,1,0,0,0,0-.15q0-.12-.09-.12a.09.09,0,0,0-.1.1Zm.36-6.63a.32.32,0,0,0-.22.08.25.25,0,0,0-.11.21.49.49,0,0,0,.25-.05C52.83,1.37,52.85,1.29,52.85,1.17Zm0,1a.18.18,0,0,0-.08.06.22.22,0,0,0,0,.08l0,0,.1-.12Zm-.09,2.44a.24.24,0,0,0,.07.18.2.2,0,0,0,.18.09.32.32,0,0,0-.06-.17A.22.22,0,0,0,52.72,4.65Zm.09,2.89,0-.06,0-.07-.06.07Zm0-4s0,0,0,0,0,0,0,0S52.86,3.5,52.81,3.5Zm.12,4.73c-.1,0-.14.06-.14.16S52.93,8.34,52.93,8.23Zm-.12-3.84,0,0h0Zm0,2.65s0,0,0,0,0,0,0,0,0,0,0,0S52.85,7.06,52.85,7Zm0,.7h0V7.68h0Zm0,1.78h.08V9l-.08.05ZM52.93,1a.05.05,0,0,0-.06.06c0,.05,0,.07.06.07s0,0,0-.07S53,1,52.93,1Zm0,1,0,0a.39.39,0,0,1,.17.19.29.29,0,0,0,.17.19l.12-.12.13.12.17-.19c0-.06,0-.08-.14-.06l-.15,0a.28.28,0,0,1,0-.13l.09-.1.08-.12a.24.24,0,0,0,0-.15.59.59,0,0,0-.23.05.5.5,0,0,1-.24.06.09.09,0,0,1-.1-.07L53,1.82a.29.29,0,0,0-.08.14Zm0,.56s0,0,0,0,0,0,0,0,0,0,0,0S53,2.55,53,2.55Zm.07.38.08-.07H53ZM53,8.57h.22a.08.08,0,0,0,0-.06l0,0Zm.63-6a.85.85,0,0,0-.18.1,1,1,0,0,0-.2.15c-.05.06-.11.12-.15.18a.4.4,0,0,0-.07.2l.12-.1.21-.2.2-.2a.43.43,0,0,0,.1-.12Zm-.56,1h.08l-.08-.07Zm.08,4.29A.17.17,0,0,0,53.2,8a.33.33,0,0,0,.13,0,1.31,1.31,0,0,0,0-.17c0-.08,0-.13-.11-.13h0a.09.09,0,0,0,0,.06A.39.39,0,0,0,53.14,7.86Zm.06-4.43h0V3.38Zm0,1.16.16.07a.3.3,0,0,0,.14.06l.05,0,.06-.06a.16.16,0,0,0,.06-.08l.18-.19a.23.23,0,0,0,0-.18.21.21,0,0,0-.14-.08h-.13l-.18,0a.3.3,0,0,0-.14.06.11.11,0,0,0-.06.1.14.14,0,0,0,0,.09l.06,0,.06,0s0,0,0,.07v0l0,0Zm0,.78,0,0a.06.06,0,0,0,0,0l0,0v0s0,0,0,0l0,0V5.3s-.05-.06-.08-.06v0l0,0a.1.1,0,0,0-.09.06v.07Zm.09.25,0,0s0,0,0,0h.08l-.08-.07h0Zm.12,4.43c-.05,0-.07,0-.07.06s0,.06.07.06.07,0,.07-.06S53.49,10.05,53.45,10.05Zm0-4s0,0,0,0,0,0,0,0l0,0S53.47,6,53.45,6Zm0,2.45s0,0,0,0,0,0,0,0l0,0S53.47,8.46,53.45,8.46Zm.08-4.89c-.05,0-.07,0-.07.06s0,.06.07.06,0,0,0-.06S53.55,3.57,53.53,3.57Zm.09-.19s0,0,0,0-.07,0,0,0,0,0,0,0A.05.05,0,0,0,53.62,3.38Zm0,2.49V5.75l0,.06Zm0-3.39s0,0,0,.07,0,.06,0,.06,0,0,0-.06S53.6,2.48,53.58,2.48Zm0,2.51a.59.59,0,0,0,.05.14c0,.07.07.11.12.11s.1,0,.11-.08a.53.53,0,0,0,0-.12.61.61,0,0,0,0-.15.17.17,0,0,0-.14,0C53.67,4.84,53.62,4.89,53.62,5Zm0,4.34h.09V9.28Zm.07-3.88s0,0,0,0a1.07,1.07,0,0,1,.06.17q0,.09.06.09h.1a.54.54,0,0,0,0-.21.18.18,0,0,0-.19-.12Zm.2,4.35s0,0,0,.06,0,.06,0,.06a.06.06,0,1,0,0-.12Zm.25-8.28L54,1.61a.19.19,0,0,0-.1.17v.05A1.06,1.06,0,0,0,54,1.68.39.39,0,0,0,54.14,1.52Zm.21,8.08s-.05,0-.05.06,0,.06.05.06,0,0,0-.06S54.39,9.6,54.35,9.6Zm.32-4.11c0,.1,0,.14.13.14V5.56l0-.1a.42.42,0,0,1,0-.09C54.69,5.38,54.67,5.42,54.67,5.49Zm.07.57h.07a.11.11,0,0,0-.07-.12Zm.31-.69a.06.06,0,1,0,.06.06A.05.05,0,0,0,55.05,5.37Zm.2,4.79c-.09,0-.13.05-.13.14l0,0a.08.08,0,0,0,.08-.06A.18.18,0,0,0,55.25,10.16Zm0-.64s0,0,0,.07,0,.08,0,.08,0,0,0-.08S55.28,9.52,55.25,9.52Zm.06-3.83h0l0,0,0,0,0,0a.33.33,0,0,0,0-.1.3.3,0,0,0,0-.1Zm.21.25,0-.07,0-.06Zm.24-.52,0,0h0s0,0,0,0h0v0l0-.07h-.2Z"/><path class="cls-1" d="M8.32,28a.75.75,0,0,1-.05-.26c0-.07,0-.11.06-.13a.14.14,0,0,0,.07-.13.24.24,0,0,0,0-.15l-.09-.14h0s0,0,0,0h.06c.07,0,.1,0,.1.07a.06.06,0,0,0,.07.07h0a.84.84,0,0,1,0-.33,2.49,2.49,0,0,1,.11-.29c0-.09.08-.19.11-.28A.9.9,0,0,0,8.87,26a.07.07,0,0,1,.06,0s0,0,.08,0a1.39,1.39,0,0,0,.39-.05A2.29,2.29,0,0,0,9.77,26l.1.4a.14.14,0,0,0,.06-.07.83.83,0,0,0,0-.12A.53.53,0,0,0,10,26,.22.22,0,0,0,10,26l.24-.18a.41.41,0,0,1,.25-.07h.1l-.12.12a.88.88,0,0,0,0,.15c0,.06,0,.09.05.09a.18.18,0,0,0,.15-.07l.09-.17c0-.06,0-.12.08-.19a.49.49,0,0,1,.09-.15.25.25,0,0,1,.12-.07l.12,0,.09-.06a.12.12,0,0,0,0-.11.23.23,0,0,0-.09-.18A.35.35,0,0,0,11,25,.12.12,0,0,0,11,25a.06.06,0,0,1-.06,0h0l-.06-.35a3.43,3.43,0,0,0-.06-.34h-.06l-.06,0s-.05,0-.05,0h-.06a.77.77,0,0,0,0-.18.58.58,0,0,0,0-.17.18.18,0,0,0-.21-.12A.82.82,0,0,1,10,24v.1a.51.51,0,0,1-.33-.16.57.57,0,0,1-.19-.32s0,0-.05,0a.08.08,0,0,1-.06,0l0,0s0,0,0,0a.4.4,0,0,1-.07-.19.56.56,0,0,1,0-.21l-.14.09a.33.33,0,0,1-.15,0q-.15,0-.12-.15a1.11,1.11,0,0,0,0-.23l-.15,0c-.07,0-.11,0-.11.12s0,0,.06.08.06.07.06.09a.18.18,0,0,1,0,.08l-.08.09h0a.19.19,0,0,1,0-.09.22.22,0,0,0,0-.08l-.08,0-.09,0a.65.65,0,0,1-.25-.27.92.92,0,0,1-.1-.32,1.26,1.26,0,0,1,0-.27c0-.07,0-.11,0-.11l-.17,0h0l0,.06,0,.06h0a.43.43,0,0,0,0-.25.65.65,0,0,0-.13-.16l-.16-.15a.51.51,0,0,1-.13-.22,1.36,1.36,0,0,0,0-.16c0-.08,0-.14,0-.16a1.33,1.33,0,0,1,.14-.63,5.3,5.3,0,0,1,.28-.47l.29-.4A.78.78,0,0,0,8,19.28h.42a.31.31,0,0,0,0-.09.41.41,0,0,1,0-.11.29.29,0,0,1,0-.09.12.12,0,0,1,.11,0c.05,0,.1.05.15.14a.25.25,0,0,0,.23.14v.13H9s0,0,0-.06v-.57a.13.13,0,0,1,0-.07l0-.05a.21.21,0,0,1,.18.07.38.38,0,0,1,.09.15A1.21,1.21,0,0,1,9.4,19a.75.75,0,0,0,.07.18c.06,0,.08-.05.08-.12V19q0-.23-.09-.27a2.24,2.24,0,0,1-.33-.19v-.05h.46a.09.09,0,0,1,.09.05.61.61,0,0,1,.05.12s0,.09,0,.13v.11h.19l.12-.29.34.17a.19.19,0,0,1,.18-.13c.07,0,.1,0,.1.08a.1.1,0,0,0,.07.1s0,0,.05,0l0,0v-.22h.09a.1.1,0,0,1,.07.1.14.14,0,0,1,0,.11.15.15,0,0,0,0,.1v0L11,19h0c.07,0,.11,0,.11-.13a1.39,1.39,0,0,0,0-.17.32.32,0,0,1,.2.09.53.53,0,0,1,.17.16l.06-.06.1-.09.1-.07.06,0a.18.18,0,0,1,.16.09.54.54,0,0,1,.07.19,1.8,1.8,0,0,1,0,.22.58.58,0,0,0,0,.15s0,0,.09.08a.36.36,0,0,1,.09.09v0s0,0,0,0a.08.08,0,0,1,0,0v0s0,.06,0,.12l0,.12h0q-.08,0-.09,0l0-.08a.23.23,0,0,0-.07-.07.46.46,0,0,0-.2,0l0,0s0,0,0,0l.09,0,.08,0a.11.11,0,0,1,.07.08l0,.09L12,20a.16.16,0,0,0,.11,0,.11.11,0,0,1-.05.09.57.57,0,0,1-.13.08l-.13.09a.17.17,0,0,0-.05.13.14.14,0,0,0,.07.14.18.18,0,0,1,.06.15s0,0,0,0v.05a.18.18,0,0,0-.07-.09l-.13-.1-.15-.08-.11,0a.1.1,0,0,0-.08,0s0,0-.07,0h0l-.07-.06-.1-.1L11,20.31l-.06-.07a.2.2,0,0,1-.05-.09s0-.06,0-.1a.11.11,0,0,0,0-.08s0,0-.08,0h-.24l-.37,0-.36,0-.24,0a.77.77,0,0,0-.27.06.35.35,0,0,0-.13.14,1.5,1.5,0,0,0-.07.2A1.22,1.22,0,0,1,9,20.7c-.06,0-.08,0-.06-.05a.09.09,0,0,0,0-.06H8.65a.07.07,0,0,0-.07.06.91.91,0,0,0,0,.21c0,.09,0,.14.12.14s.09,0,.1-.1,0-.1.09-.1a1.86,1.86,0,0,0,0,.22,1.76,1.76,0,0,0,.07.27.7.7,0,0,0,.13.24.24.24,0,0,0,.18.1h0a.05.05,0,0,0,0,0,0,0,0,0,0,0,0h0v.06c0,.05,0,.08.09.1l.17.06a.4.4,0,0,1,.15.1s0,.11,0,.2.06-.05.12-.05.12,0,.14.07a.94.94,0,0,1,.06.15.66.66,0,0,0,.05.15.16.16,0,0,0,.15.08h.05a.34.34,0,0,1-.07-.15c0-.05,0-.1,0-.14a.2.2,0,0,0,0-.13.3.3,0,0,0-.15-.1H10a.36.36,0,0,1,.2.06l.19.15.18.16a.35.35,0,0,0,.19.1l.21.07c.09,0,.13,0,.13.05l.29.57s0,0,0-.08l0-.09h.05a1.72,1.72,0,0,1,.19.41l.1-.06a.52.52,0,0,0,0,.28,1,1,0,0,0,.09.29,1.07,1.07,0,0,0,.2.23.53.53,0,0,0,.25.12,2.33,2.33,0,0,1,.17.26.63.63,0,0,1,.08.29c0,.05,0,.12-.13.22a.23.23,0,0,1-.23.1.55.55,0,0,1,.11.34,1.61,1.61,0,0,1,0,.25c0,.11-.08.16-.17.16h0l-.05,0a.15.15,0,0,1-.07,0V26a1.23,1.23,0,0,1,0,.16.87.87,0,0,1,0,.13l.05.06a.32.32,0,0,0-.06.08l-.06.09a.39.39,0,0,1-.1.16.52.52,0,0,0-.12.13.14.14,0,0,0,.12.07V27a.26.26,0,0,1-.21-.1.22.22,0,0,0-.18-.1h0l-.12.64s0,0-.06.05h0s-.06,0-.07,0a.11.11,0,0,1,0-.08s0-.05,0-.08a.07.07,0,0,0-.07,0,.13.13,0,0,0-.14.1,1.55,1.55,0,0,0,0,.21H10.8a.2.2,0,0,1-.17-.11l-.11-.18s-.06,0-.06,0v.09s0,.08,0,.09,0,0,0,.09a.71.71,0,0,1,0,.14.1.1,0,0,1-.11.07h-.06s0-.05,0-.11a.27.27,0,0,0-.06-.11h-.22a.09.09,0,0,0-.07.09v0l.06,0,.06,0h0a0,0,0,0,0,0,0,.42.42,0,0,0-.16,0,.08.08,0,0,0,0,.07l0,.1a.27.27,0,0,1-.05.13l-.11,0-.12,0s0,0,0,.05a.1.1,0,0,1,0,.07H9.59c-.07,0-.12,0-.14-.07a.18.18,0,0,0-.17-.07H9.13s0,0-.05.06-.05.06-.07.06,0,0-.09-.06-.06-.06-.08-.06l-.1,0-.15-.06L8.43,28Zm-.74-7.61s0,0,0,.05,0,.05,0,.05,0,0,0-.05S7.61,20.36,7.58,20.36Zm.26,1a.08.08,0,0,0,.06.08.3.3,0,0,0,.13,0,.28.28,0,0,0,.15,0,.17.17,0,0,0,.05-.14.34.34,0,0,0,0-.09.08.08,0,0,0-.07-.08.11.11,0,0,1,0,.11.23.23,0,0,1-.1.07.28.28,0,0,1-.12,0Zm.14.34a.11.11,0,0,0,.12.07v-.07Zm.22-.13q.13,0,.15.15a.9.9,0,0,1,0,.21.39.39,0,0,0,.17-.31c0-.13,0-.24,0-.34v-.05s0,0-.07,0a.24.24,0,0,1-.06.23.34.34,0,0,1-.23.11Zm.17,1.05s0,0,0,.06,0,.06,0,.06a.06.06,0,1,0,0-.12Zm0-.18s0,0,0,0,0,0,0,0,0,0,0,0A0,0,0,0,0,8.37,22.42Zm.12,5.37h.07v-.05H8.49Zm.18-8.31a.19.19,0,0,0-.07.12h.07Zm.06,7.85s0,0,0,0,0,0,0,0,0,0,0,0S8.73,27.35,8.73,27.33Zm0-4.67h.06V22.6Zm.23,5c-.11,0-.17,0-.2.06s0,.07,0,.11A.48.48,0,0,0,9,27.9.9.9,0,0,0,9.3,28s0,0,0-.05l-.11-.11L9,27.68Zm-.19-7.33a.12.12,0,0,0,.13.13v-.13Zm.07,7.62s0,0,0,.06,0,.06,0,.06.05,0,.05-.06S8.87,27.91,8.84,27.91Zm.06-7.79H9v-.06H8.9ZM9,19.65s0,0,0,.06,0,.06,0,.06,0,0,0-.06S9,19.65,9,19.65Zm.12,3.24a.13.13,0,0,0,0,.08.46.46,0,0,0,0,.09.15.15,0,0,0,.08-.12.68.68,0,0,0,0-.12l-.09,0S9.08,22.86,9.08,22.89Zm0,4.56c0,.06,0,.1.05.12a0,0,0,0,1,0,0v0a.1.1,0,0,0-.06-.1Zm.05-5s0,0,0,.05,0,.06,0,.06,0,0,0-.06S9.16,22.49,9.13,22.49Zm.34,3.81-.15.12c-.09.06-.14.1-.14.13l.41.12ZM9.3,19.55s0,0,0,0,0,0,0,0l0,0S9.32,19.55,9.3,19.55Zm.17,3.86h.08a.12.12,0,0,0-.08-.11Zm.47-.35s0,0,0,0,0,0,0,0S10,23.06,9.94,23.06Zm.26-4.16a.11.11,0,0,0-.12.07.78.78,0,0,0,0,.14v.09l.14-.09a.19.19,0,0,0,.08-.15s0-.05,0-.05Zm-.09,4.16h.05v0h-.05Zm.17-.57a0,0,0,0,0,0,.05s0,.06,0,.06,0,0,0-.06S10.31,22.49,10.28,22.49Zm0,1.09s0,.07.08.09l.12,0,0-.06a0,0,0,0,0,0-.06Zm0,3.47.06-.06h-.06Zm.06-4.39h.06l-.06-.06Zm.06.69.06-.05h-.12Zm.06-.39s0,0,0,.05,0,0,0,0a0,0,0,0,0,0,0S10.49,23,10.46,23Zm.06.79a.17.17,0,0,0-.08.12h.08ZM10.69,27c-.06,0-.1,0-.11.06h.17A.05.05,0,0,0,10.69,27Zm-.06-3.58h.09a.38.38,0,0,0,0-.1.15.15,0,0,0-.08-.08Zm.14-.71s0,0-.06.06a1,1,0,0,0,0,.12.49.49,0,0,0,0,.12v.07a.19.19,0,0,0,.14-.05.15.15,0,0,0,.07-.13.52.52,0,0,0,0-.11A.09.09,0,0,0,10.77,22.7Zm0,1.17h.05l-.05-.17Zm.05-5s0,0,0,.05,0,.05,0,.05,0,0,0-.05S10.84,18.86,10.8,18.86Zm.24,4s0,0,0,.05S11,23,11,23,11.07,22.85,11,22.84Zm0,1.49a.62.62,0,0,0,0,.23.19.19,0,0,0,.19.12h.06l.15,0,.14,0a0,0,0,0,0,0,0s0-.06,0-.06H11.5l-.08,0a.12.12,0,0,1,0-.1l-.12.06h-.14a.35.35,0,0,1,0-.16s0-.07-.11-.12a.34.34,0,0,1,0,.09Zm.06,1.38s0,0,0,0,0,0,0,0,0,0,0,0A0,0,0,0,0,11.09,25.71Zm.06-2.13s0,0,0,0,0,0,0,0,0,0,0,0S11.15,23.6,11.15,23.58Zm0,1.91s0,0,0,.06,0,.06,0,.06,0,0,0-.06S11.18,25.49,11.15,25.49Zm.06-1.74a.23.23,0,0,0,.11.19v-.31C11.25,23.63,11.21,23.67,11.21,23.75Zm0-4.72a0,0,0,0,0,0,0s0,.06,0,.06,0,0,0-.06S11.29,19,11.26,19Zm0,4.38a.14.14,0,0,0,.12.08v-.08Zm.43.49a.6.6,0,0,0-.27.06.21.21,0,0,0-.12.21.5.5,0,0,0,.25-.07A.23.23,0,0,0,11.69,23.9Zm-.2-4.35h.08a.12.12,0,0,0-.08-.12Zm.07,4.2h0l0-.05Zm0,1.39h.07V25h-.07Zm.53.33a.33.33,0,0,0-.13,0l-.11.1H12C12.09,25.61,12.14,25.56,12.14,25.47ZM12,25.2a.15.15,0,0,0,.07-.11H12Zm.05-.64s0,0,0,0,0,0,0,0a.05.05,0,0,0,0,0A0,0,0,0,0,12.07,24.56Zm.06.24s0,0,0,.05,0,0,0,0,0,0,0,0A0,0,0,0,0,12.13,24.8Z"/><path class="cls-1" d="M19.49,27.3a.78.78,0,0,1-.26,0l-.31-.08a2.09,2.09,0,0,1-.3-.14.51.51,0,0,1-.18-.18v-.06a.69.69,0,0,0-.13-.31.82.82,0,0,0-.18-.19L18,26.2a.4.4,0,0,1-.12-.16s0,0,0-.07a.28.28,0,0,0,0-.09.14.14,0,0,0,0-.07h-.11s0,0,0,.08l0,.09a.47.47,0,0,1-.1.16l-.18.17a.88.88,0,0,0-.17.16.25.25,0,0,0-.08.17v.07l.1,0,.1,0s0,0,0,0l0,0h0a0,0,0,0,0,0,0s0,.07,0,.07H17.3s0,0-.05,0,0,0,0,.1,0,0-.06.08-.05.08-.06.08,0,0-.09,0-.1,0-.11,0-.08-.1-.1-.09h-.14a.24.24,0,0,1-.16.11l-.22.08a.84.84,0,0,0-.19.09.19.19,0,0,0-.08.15h-.74s0,.06-.06.06h-.1a1.44,1.44,0,0,1-.62-.13.48.48,0,0,1-.28-.48v-.21a.56.56,0,0,1,.08-.21.3.3,0,0,0-.1,0l-.1,0-.1,0a.3.3,0,0,0-.1,0,.2.2,0,0,1,0,.08.34.34,0,0,1,0,.09.43.43,0,0,1,0,.05.1.1,0,0,0,0,0,.3.3,0,0,1-.24-.09.74.74,0,0,1-.1-.22,1.26,1.26,0,0,1,0-.28.79.79,0,0,0,0-.23.15.15,0,0,0,0-.06l-.06-.12-.08-.11,0-.07a.63.63,0,0,1,0-.13,1.18,1.18,0,0,1,0-.2c0-.08,0-.15,0-.21a.4.4,0,0,1,0-.13l.07-.06a.17.17,0,0,0,.06-.06h0a.35.35,0,0,0,0-.16.25.25,0,0,1,0-.14.56.56,0,0,1,0-.15.14.14,0,0,1,.12-.09h0a.1.1,0,0,1,0,.06.21.21,0,0,1,0,.06l.12,0a.25.25,0,0,0-.12-.11l-.15,0-.14-.05a.13.13,0,0,1-.06-.12.08.08,0,0,1,0-.07l.1,0,.09,0a.11.11,0,0,0,0-.1h.41v-.12l-.33-.13v-.08a.64.64,0,0,1,.08-.36.55.55,0,0,1,.2-.15l.22,0a.2.2,0,0,0,.15-.09l-.06,0s-.05,0-.06,0v0a.17.17,0,0,1,.07-.16.44.44,0,0,1,.17-.07l.2,0a.26.26,0,0,0,.15-.06s0,0,0-.09a.24.24,0,0,0,0-.08l.12-.1c.05,0,.09-.08.09-.1v-.11l-.13-.18V21.6a.17.17,0,0,1,.06-.06l.07-.06h.06l.05,0,0,0h.51a.13.13,0,0,0,0,.07s0,0,0,0a.34.34,0,0,0,.28-.07,1,1,0,0,0,.17-.18,1.8,1.8,0,0,1,.2-.18.5.5,0,0,1,.32-.06.47.47,0,0,1,.19.1l.32.22.33.25.22.16a.28.28,0,0,1,.12.12.72.72,0,0,1,.09.2,1.15,1.15,0,0,1,.06.21.3.3,0,0,1,0,.16.21.21,0,0,1,.13.07.57.57,0,0,1,.08.13l.08.11a.17.17,0,0,0,.12.05.17.17,0,0,0,0,.11.76.76,0,0,0,.06.18l.06.17a.35.35,0,0,1,0,.12v.08l0,0a.05.05,0,0,0,0,0v0s0,0,0,0a.46.46,0,0,1-.23-.06.64.64,0,0,0-.23-.05s0,.06,0,.16.05.15.09.15h.52s0,0,0,0a.51.51,0,0,1-.05.12l-.06.12s0,.07,0,.09l.13.44q0,.1.12.09c.06,0,.1,0,.11.11a.29.29,0,0,1-.06.1c0,.06-.06.1-.05.12a.16.16,0,0,0,.07.11l.1.07a.39.39,0,0,1,.1.08.09.09,0,0,1,0,.1l0,.28s0,0,0,.07l.13.07.14.07a.3.3,0,0,1,.08.07v0s0,0,0,0a1.65,1.65,0,0,1,.05.21.75.75,0,0,0,.05.16.3.3,0,0,0,.15.08l.3.12a1.87,1.87,0,0,1,.32.15,1,1,0,0,1,.23.14c-.08,0-.13,0-.14.09a.25.25,0,0,0,0,.12l0,.14a.15.15,0,0,1,0,.14.5.5,0,0,1-.22.1,2.85,2.85,0,0,1-.5,0,.21.21,0,0,1-.12,0l-.06-.09a.37.37,0,0,1-.05-.11A.39.39,0,0,0,19.49,27.3Zm-5.08-1.88a.79.79,0,0,1,.12.23.4.4,0,0,0,.14.21l.21.06L15,26h.3l.19,0a.19.19,0,0,0,.09-.05l.09-.08.17-.09.16,0,.17,0a.61.61,0,0,0,.28-.29,4,4,0,0,0,.18-.37.19.19,0,0,1,.12-.09l.15,0v-.06l-.08-.05c-.05,0-.07-.05-.07-.06a.16.16,0,0,1,.07-.1c0-.05.07-.08.08-.08a6,6,0,0,0,.18-.8,6.36,6.36,0,0,0,.07-.79.41.41,0,0,0-.29-.42,1.36,1.36,0,0,0-.29-.06h-.31a.68.68,0,0,0-.19.08l-.32.18-.3.19a.85.85,0,0,0-.15.1.43.43,0,0,1,0,.12,1.11,1.11,0,0,1,0,.13l-.07,0,0,0h0l-.26.24a0,0,0,0,0,0,0v0s0,.07,0,.08,0,.06,0,.13a.66.66,0,0,1,0,.15.5.5,0,0,1,0,.12s0,.09-.05.14l-.07.2a.47.47,0,0,1-.15.26.85.85,0,0,1-.22.13l-.19.05c-.06,0-.08,0-.08.08a.18.18,0,0,0,.06.16l.16.05.18,0a.13.13,0,0,1,.11.09.32.32,0,0,1-.12.1A.37.37,0,0,1,14.41,25.42Zm.79.8s0,0,0,0,0,0,0,0a.05.05,0,0,0,0,0A0,0,0,0,0,15.2,26.22Zm.13-.12s-.05,0-.05.06,0,.06.05.06a.06.06,0,1,0,0-.12Zm.07-3.46h.07v-.07H15.4Zm.53,3.46L16,26a.13.13,0,0,0,.06-.11h-.16Zm.65-4.74s0,0,0,0,0,0,0,0a.05.05,0,0,0,0,0S16.58,21.38,16.58,21.36Zm-.06,4.55h.06v-.05h-.06Zm.06.19s0,0,0,.06,0,.06,0,.06.07,0,.07-.06S16.63,26.1,16.58,26.1Zm.13-.94a.08.08,0,0,0,.06.08H17L16.93,25l-.14,0A.11.11,0,0,0,16.71,25.16Zm.07-3.74s0,0,0,.06,0,.06,0,.06,0,0,0-.06S16.82,21.42,16.78,21.42Zm.74,4.32h.12v-.13h-.12Z"/><path class="cls-1" d="M29.77,27.29l-.16.06-.17.07a.16.16,0,0,0-.08.13c0,.07-.05.1-.09.1,0-.19,0-.3-.07-.35a.29.29,0,0,0-.19-.06l-.24,0a.28.28,0,0,1-.24-.06.19.19,0,0,1-.09-.11V27a.24.24,0,0,0,0-.09s-.06,0-.14,0a.18.18,0,0,0-.17.11.19.19,0,0,1-.2.12.23.23,0,0,1,.07-.18.19.19,0,0,0,.08-.17c0-.05,0-.09,0-.1l-.11,0h-.14a.15.15,0,0,1-.1,0,.43.43,0,0,1-.1-.1c-.05-.06-.08-.09-.1-.09h0s0,0,0,0a.19.19,0,0,0-.16.07.16.16,0,0,1-.14.08s0,0-.06-.08l-.1-.18a1.86,1.86,0,0,1-.1-.2.79.79,0,0,1,0-.12v0s0,0,.05-.05,0-.06,0-.06a.41.41,0,0,0-.1-.11c-.06,0-.08-.08-.08-.09a.19.19,0,0,1-.05-.1.35.35,0,0,1,0-.12l-.19-1.57a1.16,1.16,0,0,0-.06-.16.87.87,0,0,0-.09-.17l-.12,0-.13,0a.23.23,0,0,0,0,.11c0,.06,0,.09,0,.09s0,0-.07,0a.16.16,0,0,0-.09,0,.87.87,0,0,0,0,.13.2.2,0,0,1,0,.13l0,0,0,0h-.53l-.1.11-.1.1-.06,0a.09.09,0,0,0-.06,0c0,.08,0,.14,0,.16s0,.08.06.15a.39.39,0,0,0-.17.07.22.22,0,0,0-.09.1l-.06.13a.79.79,0,0,1-.08.16l-.06,0-.06,0s0,0,0,0h0c0,.1,0,.15,0,.17l.08,0a.11.11,0,0,1,.08,0,.38.38,0,0,1,0,.2.3.3,0,0,0-.2.06.4.4,0,0,0-.11.14l-.09.18a.49.49,0,0,1-.14.18A.14.14,0,0,1,24,26h-.27s-.06,0-.07.07a1.31,1.31,0,0,0,0,.33.56.56,0,0,1-.1.33.8.8,0,0,0-.31,0,.46.46,0,0,0-.18.13,1,1,0,0,0-.14.19,1.5,1.5,0,0,1-.17.23.26.26,0,0,1-.07-.15.58.58,0,0,0,0-.14.18.18,0,0,0-.07-.1.44.44,0,0,0-.21,0l-.08.06a.23.23,0,0,0-.07.08l0,0,.05,0h.07s0,0,.05,0a.12.12,0,0,1,.07,0l0,0s0,0,0,0v0l0,0,0,0-.06.06a.22.22,0,0,0-.07.07.87.87,0,0,0-.07.19c0,.1,0,.17-.05.21a.66.66,0,0,1-.21-.33,4.7,4.7,0,0,1-.19-.63,6.72,6.72,0,0,1-.14-.67,2.77,2.77,0,0,1-.06-.45v-.1l.06,0,.08,0h.05a.22.22,0,0,0,.07-.07l.07-.08v0a1.06,1.06,0,0,1-.19-.11,1.05,1.05,0,0,1-.22-.12,3.12,3.12,0,0,1,0-.35,2.82,2.82,0,0,1,0-.31,2.19,2.19,0,0,1,0-.36,1.37,1.37,0,0,0,0-.36,1.9,1.9,0,0,0,0-.41,2.77,2.77,0,0,1,0-.42v0s0,0,.05-.06l.08-.07v0a2.16,2.16,0,0,1-.1-.25c0-.07-.05-.15-.08-.22a1,1,0,0,1,0-.23.24.24,0,0,1,0-.15.23.23,0,0,0,0-.14v0a.33.33,0,0,0,0-.1c0-.06,0-.09,0-.1a.06.06,0,0,1,.05-.06h.11a.21.21,0,0,0,.12,0c.05,0,.08-.1.11-.21s0-.06,0-.12a.49.49,0,0,1,0-.12.44.44,0,0,1-.15,0q-.09,0-.09.09v0l.15.15v.07l-.1,0-.1,0v-.48a.25.25,0,0,0,.23-.12.47.47,0,0,0,.08-.26.34.34,0,0,1,.13,0,1.38,1.38,0,0,1,.22.1l.2.14a.46.46,0,0,1,.12.13.36.36,0,0,0-.15.11.21.21,0,0,1-.14.07h0l-.06,0-.06,0v.14h.1l.19,0a.49.49,0,0,1,.17.06.1.1,0,0,1,.07.09.36.36,0,0,1-.1.27.36.36,0,0,0-.11.27.11.11,0,0,0,.07.12l.13.08a.71.71,0,0,1,.14.1.21.21,0,0,1,.07.17.46.46,0,0,1,0,.1v.08a.24.24,0,0,1,0,.11l0,.09a.18.18,0,0,0,.11.19A.59.59,0,0,0,23,23a3.28,3.28,0,0,0,0,.39,1.05,1.05,0,0,0,.05.31.53.53,0,0,1,.06.13l.07.14V24l-.09.06-.11.06v.07a1.42,1.42,0,0,0,.15.38.16.16,0,0,0,.1.09h.12s.09.07.16.18l.07-.06a1.6,1.6,0,0,1,0-.56.36.36,0,0,1,.15-.2l.24-.11a.59.59,0,0,0,.25-.25l.21-.42a1,1,0,0,1,.32-.37l0,.14a.19.19,0,0,0,.09.12l.06-.08.07,0s0,0,.07,0l.07,0h.25a.49.49,0,0,0,0-.12.15.15,0,0,1,0-.12l.06,0,.07,0,0,0s0,0,0,0a.23.23,0,0,0,0-.09l0-.17a1.54,1.54,0,0,1,0-.17,1.05,1.05,0,0,1,0-.13.68.68,0,0,1,.07-.2.47.47,0,0,1,.13-.16s.07,0,.07.07a.24.24,0,0,1,0,.12.49.49,0,0,0,0,.12.08.08,0,0,0,.07.08l0-.06a.16.16,0,0,0,0-.08,2.23,2.23,0,0,1,0-.26c0-.13,0-.22,0-.25a.05.05,0,0,1,0-.05l.05,0,.06,0a.13.13,0,0,1,.07.05v0c0,.06,0,.09,0,.11s0,.07,0,.16,0,0,0,0l0,0,.06-.11a.29.29,0,0,0,.06-.1h0a.35.35,0,0,1,.17,0l.18.1.18.11A.78.78,0,0,0,27,22a.2.2,0,0,0,.11,0h.09a.64.64,0,0,1,0,.14.41.41,0,0,0,.15.28l.16.11a.93.93,0,0,1,.14.14.38.38,0,0,1,.06.22.25.25,0,0,1,0,.13.22.22,0,0,0,0,.13.11.11,0,0,0,.06.11c.05,0,.07.05.07.12v.08a1.54,1.54,0,0,1,0,.16,1.47,1.47,0,0,1,0,.17v0a.17.17,0,0,0,0,.12.13.13,0,0,0,.07.06l.08,0a.32.32,0,0,1,.09.08.16.16,0,0,1,0,.1.2.2,0,0,0,0,.11s0,0,.06.08a.29.29,0,0,1,.06.1l0,.14c0,.06,0,.12,0,.2a1.62,1.62,0,0,1,0,.19.45.45,0,0,1,0,.14l.12.17.15.66.33.31.32.24.26.18.24.33.09.08Zm-7.91-5.2.21-.21v-.05h-.22Zm.06,0s-.05,0-.05.06,0,.06.05.06.07,0,.07-.06S22,22.09,21.92,22.09Zm0,2.89H22v-.06Zm.15.72h.05v-.05Zm.12-4s0,0,0,0-.05,0-.05,0a.05.05,0,0,0,0,0A0,0,0,0,0,22.19,21.68Zm0-.25s0,0,0,0,0,.05,0,.05a.09.09,0,0,0,0-.05S22.21,21.43,22.19,21.43Zm.15,5.2h.05v-.07h-.05Zm.1-1.78a.78.78,0,0,0,.1.34l.11.24a0,0,0,0,0,0,0h0c.07,0,.11-.06.13-.16A.64.64,0,0,1,23,25v-.06l0,0s0,0,0,0Zm.08-.56a1.05,1.05,0,0,0,0,.24.16.16,0,0,0,.16.12.23.23,0,0,0,.14,0,.29.29,0,0,1,.14,0v-.05h-.2l0-.16s0-.09,0-.13a.43.43,0,0,0,0-.11v0a.08.08,0,0,1,0,0l.05,0,.06,0a.17.17,0,0,0,0-.09.93.93,0,0,0,0-.14.09.09,0,0,0-.1-.09.45.45,0,0,1-.12.33A.48.48,0,0,0,22.52,24.29Zm.2-.88h.2a.14.14,0,0,0-.06-.08h-.14ZM23.77,25h.08v-.06h-.08Zm1.13-1.31s0-.05,0-.1a.41.41,0,0,1,0-.1l0-.06a.26.26,0,0,0,0-.07s0-.05-.07-.08H24.9l0,0s0,0,0,0Zm.66.07a.06.06,0,0,0,0,.12s.05,0,.05-.06S25.59,23.74,25.56,23.74Zm.06-.67a.12.12,0,0,0,.08-.13h-.08Zm.2.46.07-.06h-.07Zm.07-.81a.23.23,0,0,0,0,.13s.06,0,.13,0a.31.31,0,0,0-.16-.28Zm.25.38a.09.09,0,0,0,.05.09l.12,0a.11.11,0,0,0,0-.1l-.12,0Zm1.26.24s0,0,0,.07,0,.06,0,.06.05,0,.05-.06S27.44,23.34,27.4,23.34Zm.13,2s0,0,0,0,0,0,0,0,0,0,0,0A0,0,0,0,0,27.53,25.38Zm.14-.69s0,.06.08.13a1.06,1.06,0,0,0,.14.15l.07-.08a.47.47,0,0,0-.12-.2,1.56,1.56,0,0,0-.2-.16l-.05-.05,0-.05a.5.5,0,0,0,0,.12.22.22,0,0,0,0,.09v0Zm0-.5h.06v-.07h-.06Zm.26-.07s-.06,0-.06.07,0,.08.06.08.05,0,.05-.08S28,24.12,27.93,24.12Zm-.05,1.45.06.06.08-.05a.22.22,0,0,0,.07-.09v-.07s0,0,0,0l0,0s0,0-.07.05l-.06.07v.08Zm.24.28s0,0,0,.06,0,.05,0,.05.06,0,.06-.05A.05.05,0,0,0,28.12,25.85Zm.08.33c-.05,0-.07,0-.07.06s0,.06.07.06.05,0,.05-.06S28.23,26.18,28.2,26.18Zm.34.29a.14.14,0,0,0,.16.16.28.28,0,0,0,0-.15S28.61,26.45,28.54,26.47Zm.05.56h.12l.21,0Q29,27,29,27v-.07l-.15-.05-.14-.05-.12,0,0,0s0,0,0,0v0l0,0,0,0Z"/><path class="cls-1" d="M38.58,27.29l-.17.06-.16.07a.15.15,0,0,0-.09.13c0,.07,0,.1-.08.1A.52.52,0,0,0,38,27.3a.28.28,0,0,0-.18-.06l-.24,0a.29.29,0,0,1-.25-.06.14.14,0,0,1-.08-.11.45.45,0,0,1,0-.11.24.24,0,0,0,0-.09s-.06,0-.14,0a.16.16,0,0,0-.16.11.21.21,0,0,1-.21.12.23.23,0,0,1,.08-.18.21.21,0,0,0,.08-.17.1.1,0,0,0,0-.1l-.11,0h-.13a.18.18,0,0,1-.11,0l-.1-.1c0-.06-.08-.09-.1-.09h-.06a.17.17,0,0,0-.16.07.19.19,0,0,1-.15.08s0,0-.06-.08a1.62,1.62,0,0,0-.1-.18l-.09-.2a.31.31,0,0,1,0-.12v0s0,0,0-.05a.12.12,0,0,0,0-.06l-.1-.11q-.09-.07-.09-.09a.3.3,0,0,1-.05-.1,1,1,0,0,0,0-.12l-.19-1.57a.47.47,0,0,0,0-.16c0-.07-.06-.13-.09-.17l-.13,0-.12,0a.23.23,0,0,0,0,.11c0,.06,0,.09,0,.09s0,0-.08,0l-.08,0s0,.06,0,.13,0,.11,0,.13l0,0,0,0H34l-.1.11-.1.1,0,0-.07,0a.58.58,0,0,1,0,.16s0,.08.07.15a.52.52,0,0,0-.18.07.27.27,0,0,0-.08.1l-.06.13-.08.16-.06,0-.06,0s0,0,0,0,0,0,0,0,0,.15,0,.17l.07,0a.14.14,0,0,1,.09,0,.38.38,0,0,1,0,.2.28.28,0,0,0-.2.06.31.31,0,0,0-.11.14l-.1.18a.4.4,0,0,1-.14.18.12.12,0,0,1-.11,0h-.26a.08.08,0,0,0-.08.07,2.06,2.06,0,0,0,0,.33.5.5,0,0,1-.1.33.78.78,0,0,0-.3,0,.4.4,0,0,0-.18.13.72.72,0,0,0-.14.19,2.68,2.68,0,0,1-.17.23.26.26,0,0,1-.07-.15l0-.14a.2.2,0,0,0-.08-.1.41.41,0,0,0-.21,0l-.08.06S31,27,31,27l0,0,0,0h.07s0,0,.05,0l.07,0,0,0s0,0,0,0v0a0,0,0,0,0,0,0v0l-.07.06a.22.22,0,0,0-.07.07,1.07,1.07,0,0,0-.06.19l-.06.21a.66.66,0,0,1-.21-.33c-.07-.19-.13-.4-.19-.63s-.1-.46-.14-.67a4,4,0,0,1-.05-.45v-.1l.06,0,.07,0h.05a.23.23,0,0,0,.08-.07l.07-.08v0a1.2,1.2,0,0,1-.2-.11l-.21-.12c0-.15,0-.26,0-.35s0-.19,0-.31a2.2,2.2,0,0,1,0-.36,2,2,0,0,0,0-.36,2.83,2.83,0,0,0,0-.41,2.72,2.72,0,0,1,0-.42v0s0,0,.06-.06a.23.23,0,0,1,.08-.07v0a2.41,2.41,0,0,1-.11-.25,1.87,1.87,0,0,1-.07-.22,1,1,0,0,1,0-.23.24.24,0,0,1,0-.15.32.32,0,0,0,0-.14v0a.33.33,0,0,0,0-.1.65.65,0,0,1,0-.1s0,0,0-.06h.1a.27.27,0,0,0,.13,0,.34.34,0,0,0,.1-.21s0-.06,0-.12,0-.1,0-.12a.47.47,0,0,1-.16,0c-.05,0-.08,0-.08.09v0l.14.15v.07l-.1,0-.1,0v-.48a.26.26,0,0,0,.24-.12.46.46,0,0,0,.07-.26l.14,0a1,1,0,0,1,.21.1l.21.14a.46.46,0,0,1,.12.13.33.33,0,0,0-.16.11.19.19,0,0,1-.14.07h0a.1.1,0,0,1-.06,0l-.06,0v.14H31l.19,0a.43.43,0,0,1,.17.06.12.12,0,0,1,.08.09.37.37,0,0,1-.11.27.4.4,0,0,0-.11.27.13.13,0,0,0,.07.12l.14.08.14.1a.24.24,0,0,1,.06.17v.1a.45.45,0,0,0,0,.08.36.36,0,0,1,0,.11.42.42,0,0,0,0,.09c0,.1,0,.16.11.19a.51.51,0,0,0,.2,0,3.28,3.28,0,0,0,0,.39c0,.16,0,.27.05.31l.07.13.07.14V24l-.1.06-.1.06v.07a2.13,2.13,0,0,0,.14.38.18.18,0,0,0,.11.09h.11s.1.07.17.18l.06-.06a1.54,1.54,0,0,1,0-.56.29.29,0,0,1,.15-.2l.23-.11a.54.54,0,0,0,.25-.25l.22-.42a1,1,0,0,1,.31-.37.84.84,0,0,1,0,.14.18.18,0,0,0,.1.12s0,0,.06-.08.05,0,.07,0,0,0,.06,0l.07,0h.25a.49.49,0,0,0,0-.12c0-.06,0-.1,0-.12l.06,0,.07,0,0,0s0,0,0,0l0-.09,0-.17a1.36,1.36,0,0,1,0-.17.37.37,0,0,1,0-.13.47.47,0,0,1,.07-.2.38.38,0,0,1,.13-.16.08.08,0,0,1,.07.07.57.57,0,0,1,0,.12.49.49,0,0,0,0,.12.1.1,0,0,0,.08.08l0-.06a.13.13,0,0,0,0-.08,2.23,2.23,0,0,1,0-.26,2.42,2.42,0,0,0,0-.25.08.08,0,0,1,0-.05l.06,0,.06,0a.18.18,0,0,1,.07.05v0a.14.14,0,0,1,0,.11.42.42,0,0,0,0,.16s0,0,0,0l0,0,.06-.11.06-.1h0a.32.32,0,0,1,.16,0l.18.1.19.11a.48.48,0,0,0,.16.08.16.16,0,0,0,.1,0H36a.41.41,0,0,1,0,.14.31.31,0,0,0,0,.12.48.48,0,0,0,.12.16.91.91,0,0,1,.16.11.93.93,0,0,1,.14.14.38.38,0,0,1,.06.22.18.18,0,0,1,0,.13.22.22,0,0,0,0,.13.11.11,0,0,0,.07.11s.06.05.06.12v.08s0,.07,0,.16a1.47,1.47,0,0,1,0,.17v0a.29.29,0,0,0,0,.12.13.13,0,0,0,.07.06l.09,0a.2.2,0,0,1,.08.08.16.16,0,0,1,0,.1.2.2,0,0,0,0,.11s0,0,.07.08l.05.1,0,.14a1,1,0,0,1,0,.2,1.06,1.06,0,0,0,0,.19c0,.07,0,.11,0,.14l.12.17.14.66.33.31.32.24.27.18.24.33.09.08Zm-7.92-5.2.22-.21v-.05h-.23Zm.07,0s-.05,0-.05.06,0,.06.05.06.07,0,.07-.06S30.77,22.09,30.73,22.09Zm0,2.89h.08v-.06Zm.15.72h.05v-.05Zm.12-4s0,0,0,0,0,0,0,0,0,0,0,0A0,0,0,0,0,31,21.68Zm0-.25s0,0,0,0,0,.05,0,.05a.17.17,0,0,0,0-.05A0,0,0,0,0,31,21.43Zm.14,5.2h.05v-.07h-.05Zm.11-1.78a.9.9,0,0,0,.09.34,1.18,1.18,0,0,0,.12.24s0,0,0,0h0c.06,0,.1-.06.12-.16a.74.74,0,0,1,.17-.31v-.06l0,0,0,0Zm.08-.56a1.05,1.05,0,0,0,0,.24.14.14,0,0,0,.15.12.21.21,0,0,0,.14,0,.33.33,0,0,1,.14,0v-.05h-.2l0-.16,0-.13s0-.07,0-.11v0a.07.07,0,0,1,0,0l.06,0a.1.1,0,0,0,0,0,.17.17,0,0,0,0-.09.76.76,0,0,0,0-.14.1.1,0,0,0-.11-.09.49.49,0,0,1-.11.33A.43.43,0,0,0,31.33,24.29Zm.2-.88h.19c0-.05,0-.07-.06-.08h-.13Zm1,1.57h.08v-.06h-.08Zm1.13-1.31a.41.41,0,0,0,0-.1l0-.1,0-.06s0-.06,0-.07,0-.05-.06-.08H33.7l0,0s0,0,0,0Zm.66.07s0,0,0,.06,0,.06,0,.06a.06.06,0,1,0,0-.12Zm.07-.67a.13.13,0,0,0,.08-.13h-.08Zm.2.46.06-.06h-.06Zm.06-.81a.23.23,0,0,0,0,.13s.06,0,.13,0a.31.31,0,0,0-.16-.28Zm.26.38s0,.07,0,.09l.12,0a.11.11,0,0,0,0-.1l-.11,0Zm1.26.24s-.06,0-.06.07a.05.05,0,0,0,.06.06s0,0,0-.06S36.24,23.34,36.21,23.34Zm.13,2s0,0,0,0,0,0,0,0,0,0,0,0A0,0,0,0,0,36.34,25.38Zm.13-.69.09.13a.69.69,0,0,0,.14.15l.06-.08a.33.33,0,0,0-.12-.2,1.08,1.08,0,0,0-.2-.16l0-.05,0-.05a.49.49,0,0,0,0,.12.22.22,0,0,0,0,.09v0Zm0-.5h.07v-.07h-.07Zm.27-.07a.06.06,0,0,0-.07.07s0,.08.07.08,0,0,0-.08S36.77,24.12,36.74,24.12Zm-.06,1.45.07.06.07-.05a.24.24,0,0,0,.08-.09v-.07l0,0,0,0a.15.15,0,0,0-.08.05l-.06.07v.08Zm.24.28s0,0,0,.06,0,.05,0,.05.07,0,.07-.05S37,25.85,36.92,25.85Zm.08.33a.06.06,0,0,0,0,.12s0,0,0-.06S37,26.18,37,26.18Zm.35.29c0,.11,0,.16.15.16a.3.3,0,0,0,0-.15S37.42,26.45,37.35,26.47Zm0,.56h.12l.2,0c.09,0,.13,0,.13,0v-.07l-.16-.05-.14-.05-.11,0,0,0v0s0,0,0,0v0l0,0,0,0Z"/><path class="cls-1" d="M43,27.54a.19.19,0,0,0,0,.09.14.14,0,0,0,0,.07,0,0,0,0,0,0-.05h-.27l-.13,0-.19-.07h0l0,0h-.05l0,0h0l0,0,0,0s0-.05,0-.1a.89.89,0,0,0,0-.1l-.13-.05-.12,0v-.12l-.22.15s0,0,0,0l0-.08s0-.05,0-.1,0-.08,0-.09-.07,0-.07.06v.08a.13.13,0,0,1,0,.08s-.06,0-.13,0-.26,0-.3-.07a.2.2,0,0,1-.07-.16,1.09,1.09,0,0,1,0-.18.11.11,0,0,0-.09-.11l-.14,0h-.18l.07-.12a.45.45,0,0,1-.23-.08.81.81,0,0,1-.16-.16l-.12-.22-.11-.2a.45.45,0,0,1-.07-.09,1.18,1.18,0,0,0-.08-.12,1.08,1.08,0,0,1-.21-.36c0-.1-.06-.22-.11-.36l0,0,0,0a1.69,1.69,0,0,1,0-.21,1.09,1.09,0,0,1,0-.2v-.1a.47.47,0,0,1,0-.17.48.48,0,0,0,0-.18V24a.09.09,0,0,0,0,0,.1.1,0,0,1,0-.06v-.24a1.67,1.67,0,0,1,0-.19c0-.09,0-.19,0-.29a.88.88,0,0,1,.08-.26c0-.08.08-.12.13-.12a.24.24,0,0,1,0,.12.3.3,0,0,0,0,.1h.16c.07,0,.12,0,.14-.05l0-.11,0-.09h0v.12a.15.15,0,0,1,.08,0s.06,0,.06,0l0,0,0,0,.11,0,.1,0v-.07a.5.5,0,0,0-.07-.27.68.68,0,0,1-.06-.29.32.32,0,0,1,.14,0,.4.4,0,0,0,.15,0,.08.08,0,0,0,.09-.06s0-.06-.08-.06a.27.27,0,0,1-.12,0v0a.39.39,0,0,1,.05-.14.37.37,0,0,0,.07-.14h.32c.1,0,.14,0,.14.1l0,.05,0,0v0l.25,0a.31.31,0,0,0,.21-.12.29.29,0,0,0,0-.16q0-.12.09-.12c0,.09,0,.13.14.13h.1a.1.1,0,0,0,.09,0,.11.11,0,0,0,0-.08l0-.05h-.18s0,0,0,0,0,0,0,0,0-.05,0-.09,0-.06,0-.06h.05l.07,0,.09,0,.13,0c.07,0,.12,0,.13.07a1.55,1.55,0,0,1,0,.21.37.37,0,0,0,.11.2h0V21.8h0l.06.06s0,.05.06.05h0l.14,0,.13,0v0s0-.07-.09-.09a.19.19,0,0,1-.11,0h0l0,0,0-.07,0-.05.11.05.1.07h0c.09,0,.15,0,.17-.1a.33.33,0,0,1,.12-.17l.08.11.08.11,0,0,0,.05h0l0,0h0v-.43l.09,0a.76.76,0,0,0,0,.3,2.11,2.11,0,0,0,.1.3l.08,0v-.49l0,0h0s0,0,0,0a.28.28,0,0,1,0,.15c0,.09,0,.14,0,.17H44l.06-.05,0-.07h.45a.27.27,0,0,0-.06.11.62.62,0,0,0,0,.11,0,0,0,0,0,0,.05l0,.05s.06,0,.12,0h.14a.05.05,0,0,1-.06,0h-.1l-.11,0a.19.19,0,0,0-.09.13.49.49,0,0,0,0-.14l0-.12a.31.31,0,0,0,0-.08.15.15,0,0,0,0-.08c0-.05-.05-.06-.06-.05s0,0-.09,0a.63.63,0,0,0,.05.28.49.49,0,0,1,.06.27h-.09l0,.05.16.16h0a0,0,0,0,1,0,0v0l0-.05a.09.09,0,0,1,0,0,0,0,0,0,1,0,0l0,0h0a.12.12,0,0,1,.12.1.43.43,0,0,1,0,.16.22.22,0,0,1,.1-.16.65.65,0,0,1,.22,0v.25l.19,0a.31.31,0,0,1,.16.06h0l-.06,0v0c0,.07,0,.11.13.13l.2,0h0a.43.43,0,0,0,0,.07s0,0,0,0l0,0-.06,0,0,0,0,0-.05,0-.06,0,0,0a1.69,1.69,0,0,1,.27.32c-.06,0-.1.06-.14.05a.37.37,0,0,0-.16,0s0,0,0,0v0l0,.08,0,.07s0,0,.09.08.07.07.07.08a.31.31,0,0,1,0,.12.26.26,0,0,1-.06.09.1.1,0,0,0-.11-.07h0s0,0,0,.06a.07.07,0,0,1,0,.07V24a.17.17,0,0,1,0,.13.23.23,0,0,1-.1,0h-.14l-.14,0c-.06,0-.07,0,0,.1s0,.09-.05.11a.17.17,0,0,0-.07-.09l-.1,0c-.1,0-.16,0-.18.07a.14.14,0,0,1-.11.09l-.11-.05-.08,0-.08-.06,0,.06,0,0a.47.47,0,0,0-.06.15l0,.14a.5.5,0,0,1,0,.13.34.34,0,0,1-.13.1.19.19,0,0,0,0-.18.16.16,0,0,0-.15-.09.14.14,0,0,0-.1.05l-.06.11v0a.08.08,0,0,1,0,0s0,0,0,0v0l0-.07,0-.07a.05.05,0,0,0-.06-.06H43a.38.38,0,0,0-.18.06q-.12,0-.12.12l0,0a.14.14,0,0,0,.08.06.18.18,0,0,1,.08.06v.15a.39.39,0,0,0,0,.16.1.1,0,0,0,0,0l0,.05h0a0,0,0,0,0,0,0l-.17.11-.14.06-.08,0a.2.2,0,0,1,.07-.16.22.22,0,0,0,.07-.16c0-.07,0-.11,0-.11h-.14s0,.05,0,.08a.25.25,0,0,1,0,.07,1.2,1.2,0,0,1-.07.19.36.36,0,0,0,0,.11h0a.78.78,0,0,0,0-.13.08.08,0,0,0-.12-.06l-.2,0-.22.06a.05.05,0,0,1,0,0l0,0h-.08a.31.31,0,0,0-.14-.25s0,0-.05,0v.25a.1.1,0,0,1-.11-.1c0-.07,0-.11-.11-.11a1.05,1.05,0,0,1,0,.13.68.68,0,0,0,0,.12.24.24,0,0,0,0,.11.26.26,0,0,0,.06.09l.08,0,.12,0,.36.07a1.92,1.92,0,0,1,.32.09,1.55,1.55,0,0,0,.31.07,1,1,0,0,1,.31.08l.12.05c.06,0,.08,0,.08.05a.16.16,0,0,1,0,.08s0,.07,0,.08l.1,0,.12,0h.05a.32.32,0,0,0,.14,0l.14,0a1,1,0,0,1,.25,0,1,1,0,0,0,.27,0c0,.07,0,.12,0,.13l.12,0q.11,0,.12,0a.1.1,0,0,1,.09,0,.08.08,0,0,1,.07,0s0,0,0,.06a.13.13,0,0,0,0,.06s0,0,.07,0,.08,0,.07-.09,0-.09.08-.09H45l.1,0a.08.08,0,0,1,.06.09s0,.06.08.06h0l.26-.25H46l0,.06c0,.06.08.09.16.1a.24.24,0,0,1,.2.09l-.12.07a.88.88,0,0,1,0,.17,1,1,0,0,1,0,.16v.13a.16.16,0,0,1,0,.08h-.08v.07h.15v.27h0a0,0,0,0,1,0,0s0,0,0,0l0,0-.1-.06-.11-.06,0,0s0,.07,0,.08h0s0,0,0,0,0,0,0,0a.18.18,0,0,1,0,.12.15.15,0,0,1-.11,0h-.07s0,0-.14,0l-.16,0h-.06l0,0s0,0,0,0h-.08l-.08,0v-.19a1,1,0,0,0-.47.16v-.24h0a.15.15,0,0,0,0,.07.18.18,0,0,0,0,.09h-.26l-.06.09,0-.05-.11,0h-.09s0,0,0-.07,0-.06,0-.08H44l0,0,0,0H43.7v-.14l0,0,0,0h0a.07.07,0,0,1,0,0,.05.05,0,0,1,0,0h0a.23.23,0,0,0-.1.12s0,.09,0,.14a.73.73,0,0,1-.05.12s0,0-.07,0a.09.09,0,0,1-.08,0,.29.29,0,0,0,0-.09.3.3,0,0,0,0-.1s0,0-.09,0Zm-3.56-4.48s0,0,0,.05,0,0,0,0,0,0,0,0S39.43,23.06,39.42,23.06Zm.46.47s0,0,0,0,0,.05,0,.05,0,0,0-.05S39.9,23.53,39.88,23.53Zm0-.27a.13.13,0,0,0-.05.12.13.13,0,0,0,.12-.07Zm0,.89s0,0,0,0,0,0,0,0,0,0,0,0S39.92,24.17,39.92,24.15Zm.22-1.25s-.07,0-.09.1a.62.62,0,0,0,0,.11.24.24,0,0,0,.12-.05c.07,0,.1-.06.1-.08v0s0,0-.06,0Zm0,.2s0,0,0,.06,0,.07,0,.06a.07.07,0,0,0,0-.12Zm.35,1.57,0,0s0,0,0,.05l0,0s0,.05.06.05,0,0,0-.1v-.11a.33.33,0,0,0,0-.15.33.33,0,0,1,0-.15.25.25,0,0,1,0-.12.11.11,0,0,1,.1,0h0l0,.06s.05,0,.06,0h0l0,0,.06,0,.11,0c.06,0,.09,0,.1,0a.23.23,0,0,0,0-.1.16.16,0,0,1,0-.1l.09,0,.11,0h.05l.08,0,.08,0a.4.4,0,0,0,.22-.09.66.66,0,0,1,.19-.12.8.8,0,0,0,.06.17.17.17,0,0,0,.14.05h.12a.17.17,0,0,0,.11-.06l.09-.41.19-.07a.63.63,0,0,1,.2,0h0l.09,0,.07.06h0l0,0,0,0s0-.07,0-.15,0-.13,0-.16l.18,0,.18,0,.16,0H44v-.42a0,0,0,0,0,0,.05l.14.11.07.05.06-.05a2.07,2.07,0,0,1-.15-.3.55.55,0,0,0-.21-.27,2.16,2.16,0,0,0-.22-.16.58.58,0,0,0-.23-.1.41.41,0,0,0-.25.08l-.21.16c-.08.05-.15.11-.24.16a.68.68,0,0,1-.31.07h0l-.11-.05-.1-.06h-.05a.41.41,0,0,1,0,.07l0,.09-.1.11,0,0,0,0h0l0,.06-.05.06h-.21s0,0,0,.06,0,.07,0,.08,0,0,0,0l0,0,0-.06a1,1,0,0,0-.46.68.09.09,0,0,0-.14,0,.48.48,0,0,1-.08.12.28.28,0,0,1,0,.11.36.36,0,0,0,0,.11h-.09l-.11-.26v.06a.15.15,0,0,0,0,.06.48.48,0,0,0,0,.18.39.39,0,0,1,0,.17,0,0,0,0,1,0,0,0,0,0,0,0,0,0v0s0,0-.08.05a.14.14,0,0,1-.09,0v.36h-.13v.07a.32.32,0,0,0,.14,0A.34.34,0,0,1,40.53,24.67Zm-.15.3s0,0,0,0,0,0,0,0,0,0,0,0S40.38,25,40.38,25Zm0-2.53,0,0s0,0,0,0h.12l.11,0c0-.09,0-.14-.08-.14h0l-.08,0Zm.16.16a0,0,0,0,0,0,0,0,0,0,0,0,0,.05s0,0,0-.05S40.52,22.6,40.5,22.6Zm0-.76a.19.19,0,0,0,.08.16.24.24,0,0,0,.16.05.22.22,0,0,0-.06-.18A.36.36,0,0,0,40.53,21.84Zm.12,3.44s0,0,0,0,0,.05,0,.05a0,0,0,0,0,0-.05S40.67,25.28,40.65,25.28Zm.1-.63s0,0,0,.06,0,.06,0,.06,0,0,0-.06S40.78,24.65,40.75,24.65Zm0-2.42s0,.05.06.05a.09.09,0,0,0,.06-.07v-.09l-.08,0a.08.08,0,0,0,0,.07Zm0,.83s0,0,.06,0v0h0l0,0,0,0v.06ZM41,26.77a.05.05,0,0,0-.06.06v.05l.14-.05c.05,0,.07,0,.07-.11h0s0,0,0,0h0l-.1-.07-.1-.05,0,.05v.06h0s0,0,0,.05S41,26.77,41,26.77Zm-.06.22a0,0,0,0,0,0,0,0,0,0,0,0,0,0s0,0,0,0S40.94,27,40.91,27Zm0-4.39H41v-.16h-.06ZM41,24.45s0,0,0,0,0,0,0,0,0,0,0,0S41,24.47,41,24.45Zm0,2.63a0,0,0,0,0,0,.06S41,27.11,41,27.08Zm0-4.8s0,0,0,0,0,0,0,0,0,0,0,0S41,22.3,41,22.28Zm0,4.18h.09v0H41Zm.14.68s0,0,0,0,0,0,0,0l0,0S41.11,27.15,41.11,27.14Zm.06-.22s-.05,0-.05.06,0,.06.05.06,0,0,0-.06S41.19,26.92,41.17,26.92Zm0-1.23h0v-.06h0Zm0-3.72s0,0,0,.06,0,0,0,0,0,0,0,0S41.25,22,41.22,22Zm.05.06s0,0,0,0,0,.05,0,.05,0,0,0-.05S41.3,22,41.27,22Zm0,.66a0,0,0,0,0,0,0s0,.06,0,.06,0,0,0-.06S41.35,22.69,41.32,22.69Zm0,4h.11l0,0h-.08ZM41.43,22a.08.08,0,0,0,0,.08.22.22,0,0,0,0,.08h.05l.16-.05v0a.27.27,0,0,0,0-.14.38.38,0,0,0-.12-.1.25.25,0,0,1-.05.08A.18.18,0,0,0,41.43,22Zm.25,4.74-.11,0a.11.11,0,0,0,0,.1h.16Zm.11,0v.06a.13.13,0,0,0,0,.06l0,.08h.06v-.33C41.82,26.55,41.79,26.59,41.79,26.68Zm0-4.71s0,0,0,.06,0,0,0,0a0,0,0,0,0,.05,0S41.86,22,41.83,22Zm0,.57s0,0,0,.05,0,.05,0,.05a.05.05,0,1,0,0-.1Zm.1-.84a.1.1,0,0,0-.1.07h.1Zm0,.79s0-.1,0-.13a.51.51,0,0,0,0-.13v-.08a.07.07,0,0,0-.06-.07ZM42.05,25l0,0H42Zm.15,1.3s0,0,0,.05,0,.06,0,.06,0,0,0-.06S42.23,26.31,42.2,26.31Zm0-1.5s0,0,0,0,0,0,0,0S42.23,24.86,42.25,24.81Zm0,2.43s0,0,0,0a0,0,0,0,0,0,0C42.22,27.29,42.23,27.29,42.25,27.24Zm0-5.11.1.14a.14.14,0,0,0,.13.06h.08s0,0,0,0l0,0s0,0,0,0l-.08,0-.07,0s0,0,0,0,0-.05,0-.05h-.07l0,0Zm.2,4.39s0,0,0,0-.06,0,0,0a0,0,0,0,0,0,0S42.45,26.54,42.45,26.52Zm.16.06a.15.15,0,0,0,.11-.06h-.11Zm.16-2.64h0v-.06h0Zm.11.35v-.05h-.06Zm0-.74a.45.45,0,0,0,0,.11.83.83,0,0,0,0,.15.54.54,0,0,0,.07.13.11.11,0,0,0,.1.06h0l0,0,0,0a.45.45,0,0,0,0-.14v-.13a.21.21,0,0,0-.12,0L43,23.6A.17.17,0,0,0,42.84,23.55Zm.22-1.79a.34.34,0,0,0,0,.09.07.07,0,0,0,.06.07,0,0,0,0,0,0-.05v0a.07.07,0,0,0,0-.07Zm0,2.39h.06v-.07h-.06Zm.11,2.41a.58.58,0,0,1,.2.16h0l0,0v-.11a.66.66,0,0,0,0-.11.27.27,0,0,0-.14,0Zm0,.89h.07a.15.15,0,0,0-.07-.11Zm.15-.64a.76.76,0,0,0,0,.15c0,.05,0,.08.11.08h0c0-.05,0-.1,0-.15A.12.12,0,0,0,43.33,26.81Zm0-2.62v.11c0,.06,0,.09.08.1s.06,0,.06-.1v-.11Zm.08.42v-.1l-.07,0Zm0-1.32,0,0a0,0,0,0,0,0,0l0,0a.13.13,0,0,1,.13-.12.35.35,0,0,1,.18,0s0-.05-.08-.05h-.19C43.46,23.22,43.43,23.24,43.43,23.29Zm.41.08-.07,0a.06.06,0,0,0-.05.06h.19ZM43.75,22h.09v0h-.09Zm.09,5.41s0,0,0,.06,0,.06,0,.06a.06.06,0,0,0,0-.12ZM44,24.24l.07,0H44Zm0-.62s0,0,0,.05,0,0,0,0,.06,0,.06,0S44,23.62,44,23.62Zm.07-.2a0,0,0,0,0,0,0s0,0,0,0,0,0,0,0S44.06,23.44,44.07,23.42ZM44,24h.07V24H44Zm.21.15a0,0,0,0,0,0,0s0,0,0,0,0,0,0,0S44.21,24.21,44.21,24.19Zm-.05-.31h.05v-.05Zm.05-.82a0,0,0,0,0,0,.05,0,0,0,0,0,0,0s0,0,0,0S44.24,23.06,44.21,23.06Zm0,.19a.42.42,0,0,0,.07.23.64.64,0,0,1,.11.2s0,0,0-.06v0a.51.51,0,0,0,0-.09.14.14,0,0,1,0-.07c0-.06,0-.11,0-.13S44.34,23.25,44.25,23.25Zm.18.74s0,0,0,.05,0,0,0,0,0,0,0,0S44.44,24,44.43,24Zm0-1.3s0,0,0,.06,0,.05,0,.05a.08.08,0,0,0,0-.06A.08.08,0,0,0,44.47,22.69Zm.05-.2s0,0,0,.05,0,.06,0,.06,0,0,0-.06S44.55,22.49,44.52,22.49Zm.21.93v-.05h-.16Zm.08,3.26c-.1,0-.14,0-.14.11a.22.22,0,0,0,.17-.11Zm0-4s0,0,0,.06,0,.06,0,.06,0,0,0-.06S44.81,22.64,44.79,22.64Zm.05.05s0,0,0,0,0,.06,0,.06,0,0,0-.06A0,0,0,0,0,44.84,22.69Zm.2,4.23,0,0,0,0a.18.18,0,0,0,.09,0l.07-.07,0-.05h-.06l0,0-.05,0v0Zm.1.46v0h0Zm.06-.7s0,0,0,.05,0,0,0,0a0,0,0,0,0,0,0A0,0,0,0,0,45.2,26.68Zm.16,0s-.06,0-.06.05a.05.05,0,0,0,.06.06s0,0,0-.06S45.37,26.72,45.36,26.72Zm.35.73c-.06,0-.09,0-.1.05h0l.05,0s0,0,0,0Z"/><path class="cls-1" d="M47.49,21.6c0-.17,0-.39,0-.65a1.89,1.89,0,0,0-.1-.67l.07-1.81c0-.09,0-.16.08-.18a.16.16,0,0,0,.08-.15c0-.06,0-.09-.06-.1s0,0,0-.07,0-.18.09-.19a.69.69,0,0,0,.16-.13.19.19,0,0,0,0-.09.69.69,0,0,0,0-.13.35.35,0,0,1,0-.12.07.07,0,0,1,.07-.06.15.15,0,0,0,.08,0l.1.06.09.07h0a.09.09,0,0,1,0-.05.09.09,0,0,0,0-.06l-.12-.07-.11-.05v-.08h.15l.23,0,.22.08a.22.22,0,0,1,.12.15.43.43,0,0,1,0,.17c0,.09,0,.14,0,.16s0,0,.07,0,.09,0,.11,0,0,0,0-.06l0-.05s0,0,.06,0,0,0,.08.06a.59.59,0,0,1,.06.14,1.21,1.21,0,0,1,0,.18,1.15,1.15,0,0,1,0,.14,1.21,1.21,0,0,1-.09.35,1,1,0,0,0-.1.36.17.17,0,0,0,0,.09l.06,0,.06,0a.19.19,0,0,1,0,.08v.06l-.14.41A1.36,1.36,0,0,0,49,20h0a4.35,4.35,0,0,0,0,.51,1.68,1.68,0,0,1,0,.5.79.79,0,0,1-.07.3,2.22,2.22,0,0,0-.1.32s0,.13,0,.25a1.54,1.54,0,0,1-.07.24L48.72,22s0,0,0-.06v0a.29.29,0,0,1,0-.11.62.62,0,0,0,0-.11v-.06l-.21.14a.29.29,0,0,0-.14.21.22.22,0,0,0,0,.13l.08.08.08.09a.25.25,0,0,1,0,.16.17.17,0,0,1-.13,0l-.07-.08a.26.26,0,0,0,0-.09.09.09,0,0,0-.08,0v.5h-.15a.14.14,0,0,0-.08,0l-.09,0s-.07,0-.08.1,0,.11-.08.13l0,0q-.08,0-.12-.18c0-.13,0-.26-.06-.41s0-.29-.05-.42S47.52,21.61,47.49,21.6ZM47.44,27a4.4,4.4,0,0,1,.15-1,1.51,1.51,0,0,1,.48-.82.25.25,0,0,0,.08-.12s.07-.06.15-.06v.09h-.12v.05l.11,0c.06,0,.1,0,.11.06l.06,0h.22a.43.43,0,0,1,.27.09s0,0,0,.07,0,.07,0,.08,0,.07.06.07h.05a0,0,0,0,1,0,0l0,.1a.67.67,0,0,1,0,.18,1.06,1.06,0,0,0,0,.21v.05a1.57,1.57,0,0,0,0,.16.31.31,0,0,1,0,.12s0,0-.06,0a.09.09,0,0,0-.06,0,.16.16,0,0,0,0,.08.34.34,0,0,0,0,.12,1.17,1.17,0,0,1-.05.11.12.12,0,0,1-.11,0,.34.34,0,0,1-.19-.11.32.32,0,0,0-.24-.09h-.19l.23.12c-.06.09-.1.17-.14.24a.72.72,0,0,1-.12.21.49.49,0,0,1-.18.14.71.71,0,0,1-.31,0c-.07,0-.12-.05-.14-.16A.92.92,0,0,1,47.44,27Zm.08-7.06s0,0,0,.07,0,.05.05,0,0,0,0-.05S47.54,19.89,47.52,19.89Zm0,1.47s0,0,0,.08,0,.06,0,0S47.56,21.41,47.53,21.36Zm.12-3.55s0,0,0,0,0,0,0,0l0,0S47.67,17.81,47.65,17.81Zm.17,9.63s0,0,0,.06,0,.06,0,.06,0,0,0-.06S47.79,27.44,47.82,27.44Zm.24-.41a.44.44,0,0,0-.16,0s-.08.05-.08.12h.24Zm-.13-6.83s-.07,0-.08,0,0,.05.06.06,0,0,0-.05S48,20.2,47.93,20.2Zm.12-2.54s0,0,0,0,0,0,0,0,0,0,0,0A0,0,0,0,0,48.05,17.66Zm0,9.3a.18.18,0,0,0,.08-.11h-.07Zm.13-1s0,0,0,.06a0,0,0,0,0,0,.05s.06,0,.06-.05A.05.05,0,0,0,48.19,25.92Zm0-3.58s0,0,0,.06,0,.05,0,.05,0,0,0-.05S48.25,22.34,48.22,22.34Zm.08-4.44s0,0,0,.06,0,.05,0,.05,0,0,0-.05S48.33,17.9,48.3,17.9Zm0,8.45h.06l-.06-.05Zm.24-8.85c-.09,0-.13.06-.13.12s.13,0,.13-.08Zm0,7.55s.05,0,.05.07,0,.05-.05,0,0,0,0-.06S48.48,25.05,48.51,25.05Zm.12-3.69c-.1,0-.15.06-.15.11h.11s0,0,0-.06Zm0,1.22-.05.1v-.11Zm0-4.68s0,0,0,0l0,0v0l0,0Zm.1,8.69h.06l-.06-.06Zm0-7.3.08-.07h-.07Zm.17,3s0,0,0,0,0,0,0,0S48.89,22.31,48.87,22.33ZM48.92,19s0,0,0,0a.13.13,0,0,0,0-.06c0-.06,0-.09,0-.1a.11.11,0,0,0-.07,0h0Zm0,.18v-.06h0Zm0,2H49l-.06-.05ZM49,19.18s0,0,0,0l0,0S49,19.22,49,19.18Zm.07-1.94h0c0,.06,0,.07-.07.06h0l.12-.11Zm0,.19,0,0s0,0,0,0,0,0,0,0S49.17,17.41,49.15,17.43Z"/></g></g></svg>