<svg xmlns="http://www.w3.org/2000/svg" viewBox="0 0 57.13 31.61"><defs><style>.cls-1{fill:#231f20;}.cls-2{fill:#d1d2d3;}.cls-3{fill:#ed1d39;}.cls-4{fill:#fff;}</style></defs><g id="Laag_2" data-name="Laag 2"><g id="Laag_1-2" data-name="Laag 1"><path class="cls-1" d="M0,29.48l0-.15.08-.25.14-.49L.71,27c0-.11,1-3.36,2-6.8l0-.08C4,16,5.64,10.3,5.64,10.3l.12-.42a.53.53,0,0,1,.5-.38H9.2a8.27,8.27,0,0,1,1.41.11,3.89,3.89,0,0,1,1.79.78,4.17,4.17,0,0,1,1.21,1.55l.06-.09a5.05,5.05,0,0,1,4.15-2.31H22a.53.53,0,0,1,.53.48l0,.55.09,1.19s0,.2,0,.48l.13-.24a4.73,4.73,0,0,1,1.87-2,4.34,4.34,0,0,1,2.09-.51H34.4a5.76,5.76,0,0,1,4.15,2L39,12l.35-.2,1.21-.69a10.08,10.08,0,0,1,5.18-1.58h10.9a.52.52,0,0,1,.5.38l0,.15a.52.52,0,0,1-.25.44l-.58.36-4.88,3c-.88.55-4.5,2.71-7.05,4.24,2.15,2.42,6.34,7.12,7.48,8.47l2.55,3a.5.5,0,0,1,.12.34l0,.22a.55.55,0,0,1-.48.3H46.55a7.53,7.53,0,0,1-5.88-2.91l-2.43-2.9c.41.74.85,1.55,1.26,2.34l1.36,2.65.06.24a.57.57,0,0,1-.08.28.53.53,0,0,1-.45.25H34a4.24,4.24,0,0,1-2.25-.63,4.77,4.77,0,0,1-1.42-1.38,7.31,7.31,0,0,1-.67-1.19L29.61,27l-1.86,1.12A11,11,0,0,1,22.84,30,5.14,5.14,0,0,1,21,31.14a8,8,0,0,1-2.89.47q-.43,0-.84,0l-1.57-.1a.52.52,0,0,1-.48-.47l0-.16-.1-1.43c-.08-1.06-.18-2.48-.27-4a5.28,5.28,0,0,1-3.07.93,8.53,8.53,0,0,1-1.12-.07l-1-.14a7.08,7.08,0,0,1-.8,1.73A4.53,4.53,0,0,1,6.6,29.68,5.18,5.18,0,0,1,5.38,30c-.34,0-.66,0-1,0H.53A.55.55,0,0,1,.1,29.8a.51.51,0,0,1-.1-.32"/><path class="cls-2" d="M29.4,20.58l-.31.17-3.54,2-1,.58-.5.29.23-.53.46-1.07,2.16-5,.35-.8.17-.4.18.4L28,17l1.37,3,.14.32.08.16M45.73,12a7.45,7.45,0,0,0-3.9,1.22L39.5,14.57h0l-.7.4-.28.16-.15.07-.1-.12-.21-.25c-.3-.37-.94-1.13-1.44-1.7a3.44,3.44,0,0,0-1-.81A2.52,2.52,0,0,0,34.39,12H31.15c.38.48,1,1.2,1.6,1.94.84,1,1.73,2.08,2.15,2.58l.3.36.15.18-.2.11-.41.23-1.86,1-.35.19-.17.1-.09-.18-.19-.35c-.56-1.09-2.47-4.76-3.29-6.2l-2,0a1.66,1.66,0,0,0-1.44.74h0a4.38,4.38,0,0,0-.45.8c-.13.31-.24.63-.36,1h0l-2.61,7.2,0,.14-.16,0-.75-.1-.15,0v-.16c-.07-.89-.16-2.09-.25-3.34v0l0-.25,0-.44c-.18-2.38-.35-4.76-.4-5.49H17.82a2.43,2.43,0,0,0-2,1.15l-.08.14-.07.14c-.4.82-1.44,3-2,4.29h0l0,0v0l0,0-.46,1-.23.49-.13-.52-.27-1.06-.83-3.3v0h0l0-.15a6.45,6.45,0,0,0-.32-1.16,2,2,0,0,0-.53-.79,1.58,1.58,0,0,0-.66-.26A5.37,5.37,0,0,0,9.2,12H7.82L3.29,27.31H4.37a3.72,3.72,0,0,0,1.33-.15,1.89,1.89,0,0,0,1-.77,5.23,5.23,0,0,0,.62-1.47L9,19.1l.43-1.46.22-.72.16.74.31,1.48.36,1.67,0,.08c.08.39.48,2.2.61,2.79l.54,0h0a2.56,2.56,0,0,0,2-.75,6.08,6.08,0,0,0,1-1.69v0l0,0v0h0l1.19-2.33.66-1.26L16.9,17l0,.71L17,19.09c.13,2.25.4,7.1.6,9.83h.45a5.59,5.59,0,0,0,2-.31,2.32,2.32,0,0,0,1.28-1l.12-.22.06-.1h.12l.25,0h.3a7.82,7.82,0,0,0,4.21-1.49h0l3.87-2.33.37-.23.19-.11.09.2.18.4c.14.3.34.77.45,1.05l.09.23a8.49,8.49,0,0,0,.86,1.79h0a2.12,2.12,0,0,0,.65.65,1.59,1.59,0,0,0,.88.24h3c-.48-.91-1-1.84-1.51-2.75-.4-.72-1.11-2-1.5-2.76h0l-.14-.26-.17-.33-.09-.16.16-.09.32-.19,2.72-1.63.28-.17.14-.08.1.13.22.25.18.22h0c.4.49,1.1,1.32,1.86,2.22l3.08,3.69a5.67,5.67,0,0,0,1.65,1.4,4.49,4.49,0,0,0,2.23.56h3c-1.88-2.17-7.42-8.38-8.7-9.82l-.31-.35-.16-.18.2-.12.4-.24,8.36-5ZM56,10.31,54.86,11l-3.71,2.29c-.95.59-5.11,3.08-7.6,4.57,2.33,2.61,6.74,7.56,7.9,8.93l1.73,2,.55.64.27.31H46.53a7,7,0,0,1-5.46-2.72L38,23.43l-.72-.86,0,0,0,0-.07-.08-.4-.48-.41.25c.34.62.71,1.3,1,1.74.58,1,1.18,2.11,1.72,3.18l.93,1.8.29.57.15.28H34a3.76,3.76,0,0,1-2-.55A4.24,4.24,0,0,1,30.8,28a7.41,7.41,0,0,1-.63-1.11c-.11-.25-.22-.5-.31-.74l-2.38,1.44a10.21,10.21,0,0,1-4.88,1.77,4.48,4.48,0,0,1-1.82,1.21,7.71,7.71,0,0,1-2.71.44c-.28,0-.54,0-.8,0l-1.4-.09H15.7l0-.17,0-.33-.08-1.08c-.1-1.31-.22-3.18-.33-5l-.13.14h0a4.64,4.64,0,0,1-3.39,1.37h-.05a8.54,8.54,0,0,1-1-.07l-.86-.12-.27,0-.14,0,0-.13,0-.16-.08.27h0a7.55,7.55,0,0,1-.88,2,4,4,0,0,1-2,1.57,4.72,4.72,0,0,1-1.09.25c-.33,0-.65,0-.92,0H.52l.08-.25.14-.5.47-1.59h0c0-.12,1-3.32,2-6.81l0-.06,2.65-8.95.25-.88.08-.28,0-.13H9.2a7,7,0,0,1,1.32.1,3.4,3.4,0,0,1,1.56.67,4,4,0,0,1,1.22,1.75,7.5,7.5,0,0,1,.22.73c.19-.38.34-.7.43-.87h0v0L14.1,12h0A4.52,4.52,0,0,1,17.82,10H22l0,.17,0,.36.08,1.15h0s.05.79.14,1.9c0,.2,0,.41,0,.63s0,.2,0,.3l.24-.64v0h0a11.43,11.43,0,0,1,.69-1.67h0a4.29,4.29,0,0,1,1.66-1.75,3.85,3.85,0,0,1,1.84-.45h7.64a5.22,5.22,0,0,1,3.76,1.83h0l.68.79,1.95-1.1A9.48,9.48,0,0,1,45.71,10h10.9Z"/><path class="cls-1" d="M27.42,18.41l-1.2,2.78,2-1.13m5.52-3.28h0c-.91-1.09-2.56-3.07-3.36-4,.81,1.49,1.87,3.53,2.43,4.61l1-.54Zm19-5.64-2.14,1.32c-1.05.65-6.21,3.74-8.44,5.07h0l-.19.12c1.89,2.12,7.41,8.32,8.7,9.82l1,1.18.11.13H46.51a5.85,5.85,0,0,1-4.68-2.33l-3.89-4.66-.08-.08L37,20.62l-2,1.19c.41.75,1,2,1.43,2.63.57,1,1.17,2.09,1.71,3.14l.53,1,.06.11H34a2.75,2.75,0,0,1-2.27-1.17,6.28,6.28,0,0,1-.65-1.09c-.18-.39-.33-.78-.46-1.13h0l-.06-.18c-.06-.14-.14-.33-.23-.52L26.91,26.7a8.75,8.75,0,0,1-4.83,1.63,3.41,3.41,0,0,1-1.53,1.21,7.31,7.31,0,0,1-3.21.4l-.62-.05h-.07v-.07l0-.61c-.16-2.13-.38-5.8-.53-8.37l-.42.82h0A12,12,0,0,1,15,22.83a4.53,4.53,0,0,1-.89,1.07,4,4,0,0,1-3.33.78l-.5-.06h-.05v-.06l-.11-.49c0-.12-.53-2.44-.64-2.94L8.3,25.21a3.92,3.92,0,0,1-2.22,2.92,3.66,3.66,0,0,1-.93.19c-.31,0-.64,0-1,0H1.92l0-.1.27-.92c.08-.25,4.62-15.65,4.66-15.79L7,11l0-.06H8.61a9.62,9.62,0,0,1,1.53,0,2.47,2.47,0,0,1,1.3.5,2.65,2.65,0,0,1,.86,1.21,8.08,8.08,0,0,1,.4,1.46h0l.51,2c.41-.88.8-1.71,1.11-2.35.17-.35.31-.64.41-.86s.1-.2.14-.26l.08-.14A3.48,3.48,0,0,1,17.82,11H21v.07l.05.67c0,.1.32,4.36.56,7.62l1.87-5.17h0c.11-.31.24-.67.39-1a5.35,5.35,0,0,1,.59-1A2.69,2.69,0,0,1,26.76,11l2.17,0H30.6l3.76,0a4.19,4.19,0,0,1,3,1.48c.4.45.88,1,1.21,1.42.84-.46,2.32-1.3,2.7-1.52A8.47,8.47,0,0,1,45.68,11h7.25Z"/><path class="cls-3" d="M27.41,17.42l-2,4.72,3.33-1.91m21.65-8.11c-1.16.71-7.4,4.44-9.06,5.43,1.47,1.64,7.64,8.57,9,10.18l.54.64H46.51A5.25,5.25,0,0,1,44,27.75a6.57,6.57,0,0,1-1.83-1.56L37,20.1l-2.63,1.56c.36.67,1.17,2.17,1.62,3,.57,1,1.17,2.09,1.7,3.12l.29.57H34A2.28,2.28,0,0,1,32.83,28a2.81,2.81,0,0,1-.83-.78,6.49,6.49,0,0,1-.57-1c-.16-.34-.3-.71-.43-1.06h0L30.93,25c-.1-.26-.28-.66-.41-1l-3.81,2.29a8.19,8.19,0,0,1-4.85,1.57,3.14,3.14,0,0,1-1.94,1.41,8,8,0,0,1-2.56.2l-.33,0,0-.33c-.2-2.6-.47-7.44-.61-9.84L15.3,21.47c-.19.38-.38.77-.59,1.13a4.38,4.38,0,0,1-.83,1,2.86,2.86,0,0,1-1.24.63,4.42,4.42,0,0,1-1.76.05l-.27,0L10.55,24l-.66-3L9.57,19.5,7.91,25.1a6.11,6.11,0,0,1-.7,1.63,2.53,2.53,0,0,1-1.27,1,3.12,3.12,0,0,1-.87.17,9.08,9.08,0,0,1-.91,0H2.46l.15-.5c0-.16,1.68-5.72,3-10.2l0-.15c.87-2.94,1.6-5.39,1.61-5.45l.08-.27H8.61a10.48,10.48,0,0,1,1.38,0,2.29,2.29,0,0,1,1.21.42A2.55,2.55,0,0,1,12,13a8.11,8.11,0,0,1,.35,1.33l.8,3.14c.22-.48.5-1.08.79-1.69s.64-1.36.9-1.89l.31-.65.11-.22,0-.07,0-.06a3.12,3.12,0,0,1,2.53-1.44h2.84l0,.37c0,.12.47,6.34.71,9.5l2.51-6.94c.12-.33.24-.68.38-1a4.59,4.59,0,0,1,.52-.95,2.53,2.53,0,0,1,.8-.72,2.43,2.43,0,0,1,1.16-.28l2.16,0h.23l.11.19c.45.8,1.33,2.46,2.1,3.92l1.24,2.38,1.74-1c-.36-.42-1-1.16-1.63-1.95-1-1.19-2.08-2.51-2.41-2.94l-.48-.61h.78l3.76,0a3.3,3.3,0,0,1,1.48.39,4.22,4.22,0,0,1,1.22,1c.49.56,1.11,1.3,1.42,1.68.71-.4,2.56-1.43,3-1.69a7.91,7.91,0,0,1,4.2-1.31h5.83Z"/><path class="cls-1" d="M42.12,17.53c2.23-1.33,7.39-4.42,8.44-5.07l2.14-1.32.23-.14H45.68a8.47,8.47,0,0,0-4.41,1.36c-.38.22-1.86,1.06-2.7,1.52-.33-.4-.81-1-1.21-1.42a4.19,4.19,0,0,0-3-1.48L30.6,11H28.93l-2.17,0a2.69,2.69,0,0,0-2.26,1.14,5.35,5.35,0,0,0-.59,1c-.15.36-.28.72-.39,1h0l-1.87,5.17c-.24-3.26-.55-7.53-.56-7.62L21,11.07V11H17.82A3.49,3.49,0,0,0,15,12.61l-.08.14-.14.27c-.1.22-.24.51-.41.85l-1.11,2.36-.51-2h0a8.08,8.08,0,0,0-.4-1.46,2.65,2.65,0,0,0-.86-1.21,2.47,2.47,0,0,0-1.3-.5,6.81,6.81,0,0,0-.92,0H7.05L7,11l-.15.51c0,.14-4.58,15.54-4.66,15.79L2,28.25l0,.1H4.33c.28,0,.56,0,.83,0a3.68,3.68,0,0,0,.92-.19A3.92,3.92,0,0,0,8.3,25.21l1.21-4.09c.11.5.62,2.82.64,2.94l.11.49v.06h.05l.5.06a6.79,6.79,0,0,0,.86.06,3.56,3.56,0,0,0,2.47-.84A4.53,4.53,0,0,0,15,22.83a12,12,0,0,0,.61-1.17h0l.42-.82c.15,2.57.37,6.24.53,8.36l0,.62v.07h.07l.61.05.76,0a6.6,6.6,0,0,0,2.46-.42,3.38,3.38,0,0,0,1.54-1.22h.09a8.79,8.79,0,0,0,4.73-1.63l3.42-2.06c.09.19.17.38.22.52l.07.18h0c.13.36.28.74.46,1.13a6.28,6.28,0,0,0,.65,1.09A2.75,2.75,0,0,0,34,28.73h4.67l-.06-.11-.53-1c-.54-1-1.14-2.12-1.71-3.14-.38-.68-1-1.88-1.43-2.63l2-1.19.91,1.09.08.08,3.89,4.66a5.85,5.85,0,0,0,4.68,2.33h5.21l-.11-.13-1-1.18c-1.29-1.5-6.81-7.7-8.7-9.82l.19-.12m-8.4-.74-1,.54c-.56-1.08-1.62-3.12-2.43-4.61.8,1,2.45,3,3.36,4h0Zm-5.53,3.27-2,1.13,1.2-2.78Z"/><path class="cls-3" d="M27.4,16.46l1.8,3.93-4.64,2.67M45.68,11.79a7.55,7.55,0,0,0-4,1.26L38.39,14.9s-.94-1.13-1.62-1.92a3.48,3.48,0,0,0-2.41-1.21l-3.76,0c.65.83,4.33,5.22,4.33,5.22l-2.49,1.41s-2.62-5.06-3.52-6.63l-2.16,0c-1.53,0-2,1.35-2.49,2.69l-3.14,8.65S20.31,12,20.3,11.79H17.82a2.7,2.7,0,0,0-2.2,1.26c-.15.23-2.62,5.52-2.62,5.52l-1.07-4.21a3.69,3.69,0,0,0-1-2.23,3.88,3.88,0,0,0-2.35-.37h-1c0,.15-4.59,15.54-4.66,15.8h.94a5.73,5.73,0,0,0,1.88-.16c1-.37,1.36-1.16,1.74-2.4l2.09-7,.64,2.92.66,3c2.59.35,3.29-1.08,4-2.6l1.75-3.41s.42,7.71.69,11.25c1.55.11,3.51-.09,4.22-1.56l0-.06h.07a7.74,7.74,0,0,0,4.8-1.5l4.18-2.52s.42.92.6,1.37c.56,1.44,1.13,3.07,2.72,3.07h3.37c-.52-1-1.11-2.09-1.69-3.11s-1.79-3.31-1.79-3.31l3.22-1.92,5.32,6.34a5.11,5.11,0,0,0,4.07,2H50c-1.56-1.84-9.32-10.53-9.32-10.53s8.12-4.85,9.45-5.67Z"/><path class="cls-4" d="M16.64,3.8h0l0-.21a2.23,2.23,0,0,0-.1-.43,2.39,2.39,0,0,0-2.28-1.74,1.66,1.66,0,0,0-.32,0,2.43,2.43,0,0,0-2.09,2.78,2.38,2.38,0,0,0,2.4,2.12l.32,0a2.46,2.46,0,0,0,1.67-.89l0-.11-.05-.08A4.26,4.26,0,0,0,15.72,5l-.09,0-.1,0-.1,0a1.56,1.56,0,0,1-1,.55h-.21a1.63,1.63,0,0,1-1.51-1v0h0a2.09,2.09,0,0,1,.8-.16h.17l.4,0a5.15,5.15,0,0,0,.83.07,3.52,3.52,0,0,0,.56,0A3,3,0,0,0,16.55,4a.2.2,0,0,0,.09-.23m-.85-.31a3.11,3.11,0,0,1-.5.1l-.34,0-.69,0h0c-.21,0-.41,0-.61,0a2.34,2.34,0,0,0-.38,0,2.66,2.66,0,0,0-.65.16v0A1.67,1.67,0,0,1,14,2.25h.21a1.71,1.71,0,0,1,1.57,1.23v0Z"/><polyline class="cls-4" points="28.41 1.69 28.3 1.58 27.67 1.58 27.56 1.69 27.56 6.11 27.67 6.22 28.3 6.22 28.41 6.11"/><path class="cls-4" d="M28,0a.57.57,0,0,0-.57.56.57.57,0,0,0,1.13,0A.57.57,0,0,0,28,0"/><path class="cls-4" d="M19.73,6.34h.12a2.34,2.34,0,0,0,1.67-.69,2.48,2.48,0,0,0,.69-1.76,2.44,2.44,0,0,0-2.44-2.49,2.41,2.41,0,0,0-2.35,1.83,5.62,5.62,0,0,0-.1,1.14V7.85l.11.11h.62l.11-.12V5.66l0,0a2.5,2.5,0,0,0,1.54.65m0-4.09A1.6,1.6,0,0,1,21.33,3.9,1.55,1.55,0,0,1,19.8,5.54a1.66,1.66,0,0,1-1.14-.44,1.6,1.6,0,0,1-.48-1.17,1.64,1.64,0,0,1,1.57-1.68"/><path class="cls-4" d="M8.65,6.34h.12a2.34,2.34,0,0,0,1.67-.69,2.48,2.48,0,0,0,.69-1.76,2.44,2.44,0,0,0-4.8-.66,5.8,5.8,0,0,0-.09,1.14V7.85L6.35,8H7l.11-.12V5.66l0,0a2.47,2.47,0,0,0,1.54.65m0-4.09A1.61,1.61,0,0,1,10.25,3.9,1.55,1.55,0,0,1,8.72,5.54,1.66,1.66,0,0,1,7.58,5.1,1.6,1.6,0,0,1,7.1,3.93,1.64,1.64,0,0,1,8.67,2.25"/><path class="cls-4" d="M22.81,5.57a2.65,2.65,0,0,0,1.88.77h0c1.31,0,1.9-.73,1.9-1.43A1.39,1.39,0,0,0,25.41,3.6l-.28-.05c-.23,0-.47-.09-.68-.15s-.65-.21-.65-.58.45-.62.88-.62a1.53,1.53,0,0,1,1,.35l.12.05.11,0a4.1,4.1,0,0,0,.43-.36l0-.1L26.34,2a2.52,2.52,0,0,0-1.68-.57,1.58,1.58,0,0,0-1.73,1.48c0,.66.54,1.13,1.54,1.33l.62.12c.4.07.63.29.63.59s-.37.6-1,.6A1.87,1.87,0,0,1,23.48,5h0l-.1,0-.09,0-.49.4,0,.07,0,.1"/></g></g></svg>