<svg xmlns="http://www.w3.org/2000/svg" viewBox="0 0 86 86"><defs><style>.cls-1{fill:#fff;}.cls-2{fill:#005992;}.cls-3{fill:#ed1a38;}</style></defs><g id="Laag_2" data-name="Laag 2"><g id="Layer_1" data-name="Layer 1"><path id="path36" class="cls-1" d="M73.4,73.4a43,43,0,1,1,0-60.8,43,43,0,0,1,0,60.8"/><path id="path38" class="cls-2" d="M77.3,20.8a29.48,29.48,0,0,1,1.3,8.4A28.78,28.78,0,0,1,66.8,52.3c-12.3,9.1-30.3,9.1-55.1,16.9A40.76,40.76,0,0,0,83.8,43.1a41.07,41.07,0,0,0-6.5-22.3"/><path id="path40" class="cls-3" d="M67.5,10.3A40.8,40.8,0,0,0,10.2,67.2,84.75,84.75,0,0,0,67.5,10.3"/></g></g></svg>