<svg xmlns="http://www.w3.org/2000/svg" viewBox="0 0 86 86"><defs><style>.cls-1{fill:#fff;}</style></defs><g id="Laag_2" data-name="Laag 2"><g id="Laag_1-2" data-name="Laag 1"><path class="cls-1" d="M73.41,12.6h0a43,43,0,1,0,0,60.81A43,43,0,0,0,73.4,12.59Zm-63,5.8a40.79,40.79,0,0,1,57.13-8.1,84.73,84.73,0,0,1-57.3,56.9A40.8,40.8,0,0,1,10.38,18.4ZM69.11,74.48a40.76,40.76,0,0,1-57.4-5.28c24.8-7.8,42.8-7.8,55.1-16.9a28.76,28.76,0,0,0,11.8-23.1,29.16,29.16,0,0,0-1.3-8.4,41.1,41.1,0,0,1-8.2,53.68Z"/></g></g></svg>